<mxfile host="app.diagrams.net" modified="2022-10-19T11:50:52.956Z" agent="5.0 (Windows NT 10.0; Win64; x64) AppleWebKit/537.36 (KHTML, like Gecko) Chrome/106.0.0.0 Safari/537.36" etag="krwfaaYC90943g6j0p1d" version="20.3.7" type="github">
  <diagram id="eC6o1y3V0MG1QcpFckKx" name="Page-1">
    <mxGraphModel dx="1899" dy="723" grid="1" gridSize="10" guides="1" tooltips="1" connect="1" arrows="1" fold="1" page="1" pageScale="1" pageWidth="827" pageHeight="1169" math="0" shadow="0">
      <root>
        <mxCell id="0" />
        <mxCell id="1" parent="0" />
        <mxCell id="biEdiNN_DH7vA-2YOj9z-351" value="" style="endArrow=none;html=1;rounded=1;strokeColor=default;fontSize=13;fontColor=#000000;dashed=1;" edge="1" parent="1">
          <mxGeometry width="50" height="50" relative="1" as="geometry">
            <mxPoint x="380" y="1100" as="sourcePoint" />
            <mxPoint x="380" y="690" as="targetPoint" />
          </mxGeometry>
        </mxCell>
        <mxCell id="biEdiNN_DH7vA-2YOj9z-359" value="" style="endArrow=none;html=1;rounded=1;strokeColor=default;fontSize=13;fontColor=#000000;dashed=1;" edge="1" parent="1">
          <mxGeometry width="50" height="50" relative="1" as="geometry">
            <mxPoint x="772.71" y="1101" as="sourcePoint" />
            <mxPoint x="772.71" y="691" as="targetPoint" />
          </mxGeometry>
        </mxCell>
        <mxCell id="biEdiNN_DH7vA-2YOj9z-360" value="" style="group" vertex="1" connectable="0" parent="1">
          <mxGeometry x="424.485566097498" y="703" width="306.528867805004" height="432" as="geometry" />
        </mxCell>
        <mxCell id="biEdiNN_DH7vA-2YOj9z-353" value="" style="group" vertex="1" connectable="0" parent="biEdiNN_DH7vA-2YOj9z-360">
          <mxGeometry width="306.528867805004" height="387" as="geometry" />
        </mxCell>
        <mxCell id="biEdiNN_DH7vA-2YOj9z-118" style="edgeStyle=orthogonalEdgeStyle;rounded=0;orthogonalLoop=1;jettySize=auto;html=1;entryX=0.5;entryY=0;entryDx=0;entryDy=0;" edge="1" source="biEdiNN_DH7vA-2YOj9z-119" parent="biEdiNN_DH7vA-2YOj9z-353">
          <mxGeometry relative="1" as="geometry">
            <mxPoint x="60.51443390250199" y="297" as="targetPoint" />
          </mxGeometry>
        </mxCell>
        <mxCell id="biEdiNN_DH7vA-2YOj9z-119" value="&lt;font color=&quot;#ffffff&quot; style=&quot;font-size: 13px;&quot;&gt;Decoder&lt;/font&gt;" style="shape=trapezoid;perimeter=trapezoidPerimeter;whiteSpace=wrap;html=1;fixedSize=1;fillColor=#32788A;fontSize=13;rounded=1;" vertex="1" parent="biEdiNN_DH7vA-2YOj9z-353">
          <mxGeometry x="0.5144339025019917" y="207" width="120" height="60" as="geometry" />
        </mxCell>
        <mxCell id="biEdiNN_DH7vA-2YOj9z-120" style="edgeStyle=orthogonalEdgeStyle;rounded=0;orthogonalLoop=1;jettySize=auto;html=1;exitX=0.5;exitY=0;exitDx=0;exitDy=0;entryX=0.5;entryY=0;entryDx=0;entryDy=0;fontSize=13;" edge="1" source="biEdiNN_DH7vA-2YOj9z-121" target="biEdiNN_DH7vA-2YOj9z-119" parent="biEdiNN_DH7vA-2YOj9z-353">
          <mxGeometry relative="1" as="geometry" />
        </mxCell>
        <mxCell id="biEdiNN_DH7vA-2YOj9z-121" value="" style="shape=trapezoid;perimeter=trapezoidPerimeter;whiteSpace=wrap;html=1;fixedSize=1;rotation=-179;fillColor=#8F3D2C;fontSize=13;rounded=1;" vertex="1" parent="biEdiNN_DH7vA-2YOj9z-353">
          <mxGeometry x="0.5144339025019917" y="117" width="120" height="60" as="geometry" />
        </mxCell>
        <mxCell id="biEdiNN_DH7vA-2YOj9z-122" style="edgeStyle=orthogonalEdgeStyle;rounded=0;orthogonalLoop=1;jettySize=auto;html=1;exitX=0.5;exitY=1;exitDx=0;exitDy=0;entryX=0.5;entryY=1;entryDx=0;entryDy=0;fontSize=13;" edge="1" target="biEdiNN_DH7vA-2YOj9z-121" parent="biEdiNN_DH7vA-2YOj9z-353">
          <mxGeometry relative="1" as="geometry">
            <mxPoint x="60.51443390250199" y="87" as="sourcePoint" />
          </mxGeometry>
        </mxCell>
        <mxCell id="biEdiNN_DH7vA-2YOj9z-230" value="" style="edgeStyle=orthogonalEdgeStyle;rounded=0;orthogonalLoop=1;jettySize=auto;html=1;dashed=1;strokeColor=default;fontSize=13;fontColor=#000000;startArrow=none;startFill=0;" edge="1" parent="biEdiNN_DH7vA-2YOj9z-353" target="biEdiNN_DH7vA-2YOj9z-226">
          <mxGeometry relative="1" as="geometry">
            <mxPoint x="106.51443390250199" y="55" as="sourcePoint" />
            <Array as="points">
              <mxPoint x="106.51443390250199" y="55" />
              <mxPoint x="106.51443390250199" y="55" />
            </Array>
          </mxGeometry>
        </mxCell>
        <mxCell id="biEdiNN_DH7vA-2YOj9z-234" style="edgeStyle=orthogonalEdgeStyle;rounded=1;orthogonalLoop=1;jettySize=auto;html=1;entryX=0.5;entryY=1;entryDx=0;entryDy=0;dashed=1;strokeColor=default;fontSize=13;fontColor=#000000;startArrow=none;startFill=0;exitX=1;exitY=0.5;exitDx=0;exitDy=0;" edge="1" parent="biEdiNN_DH7vA-2YOj9z-353" target="biEdiNN_DH7vA-2YOj9z-226">
          <mxGeometry relative="1" as="geometry">
            <mxPoint x="97.01443390250199" y="333" as="sourcePoint" />
          </mxGeometry>
        </mxCell>
        <mxCell id="biEdiNN_DH7vA-2YOj9z-125" value="" style="endArrow=classic;html=1;rounded=0;exitX=0.25;exitY=0;exitDx=0;exitDy=0;entryX=0.75;entryY=0;entryDx=0;entryDy=0;strokeColor=default;dashed=1;fontSize=13;" edge="1" source="biEdiNN_DH7vA-2YOj9z-121" target="biEdiNN_DH7vA-2YOj9z-119" parent="biEdiNN_DH7vA-2YOj9z-353">
          <mxGeometry width="50" height="50" relative="1" as="geometry">
            <mxPoint x="488.014433902502" y="77" as="sourcePoint" />
            <mxPoint x="538.014433902502" y="27" as="targetPoint" />
          </mxGeometry>
        </mxCell>
        <mxCell id="biEdiNN_DH7vA-2YOj9z-126" value="" style="endArrow=classic;html=1;rounded=0;exitX=0.75;exitY=0;exitDx=0;exitDy=0;entryX=0.25;entryY=0;entryDx=0;entryDy=0;dashed=1;fontSize=13;" edge="1" source="biEdiNN_DH7vA-2YOj9z-121" target="biEdiNN_DH7vA-2YOj9z-119" parent="biEdiNN_DH7vA-2YOj9z-353">
          <mxGeometry width="50" height="50" relative="1" as="geometry">
            <mxPoint x="428.014433902502" y="107" as="sourcePoint" />
            <mxPoint x="478.014433902502" y="57" as="targetPoint" />
          </mxGeometry>
        </mxCell>
        <mxCell id="biEdiNN_DH7vA-2YOj9z-134" style="edgeStyle=orthogonalEdgeStyle;rounded=0;orthogonalLoop=1;jettySize=auto;html=1;entryX=0.5;entryY=0;entryDx=0;entryDy=0;" edge="1" source="biEdiNN_DH7vA-2YOj9z-135" parent="biEdiNN_DH7vA-2YOj9z-353">
          <mxGeometry relative="1" as="geometry">
            <mxPoint x="246.014433902502" y="297" as="targetPoint" />
          </mxGeometry>
        </mxCell>
        <mxCell id="biEdiNN_DH7vA-2YOj9z-135" value="&lt;font color=&quot;#ffffff&quot; style=&quot;font-size: 13px;&quot;&gt;Decoder&lt;/font&gt;" style="shape=trapezoid;perimeter=trapezoidPerimeter;whiteSpace=wrap;html=1;fixedSize=1;fillColor=#32788A;fontSize=13;rounded=1;" vertex="1" parent="biEdiNN_DH7vA-2YOj9z-353">
          <mxGeometry x="186.014433902502" y="207" width="120" height="60" as="geometry" />
        </mxCell>
        <mxCell id="biEdiNN_DH7vA-2YOj9z-136" style="edgeStyle=orthogonalEdgeStyle;rounded=0;orthogonalLoop=1;jettySize=auto;html=1;exitX=0.5;exitY=0;exitDx=0;exitDy=0;entryX=0.5;entryY=0;entryDx=0;entryDy=0;fontSize=13;" edge="1" source="biEdiNN_DH7vA-2YOj9z-137" target="biEdiNN_DH7vA-2YOj9z-135" parent="biEdiNN_DH7vA-2YOj9z-353">
          <mxGeometry relative="1" as="geometry" />
        </mxCell>
        <mxCell id="biEdiNN_DH7vA-2YOj9z-137" value="" style="shape=trapezoid;perimeter=trapezoidPerimeter;whiteSpace=wrap;html=1;fixedSize=1;rotation=-179;fillColor=#8F3D2C;fontSize=13;rounded=1;" vertex="1" parent="biEdiNN_DH7vA-2YOj9z-353">
          <mxGeometry x="186.014433902502" y="117" width="120" height="60" as="geometry" />
        </mxCell>
        <mxCell id="biEdiNN_DH7vA-2YOj9z-138" style="edgeStyle=orthogonalEdgeStyle;rounded=0;orthogonalLoop=1;jettySize=auto;html=1;exitX=0.5;exitY=1;exitDx=0;exitDy=0;entryX=0.5;entryY=1;entryDx=0;entryDy=0;fontSize=13;" edge="1" target="biEdiNN_DH7vA-2YOj9z-137" parent="biEdiNN_DH7vA-2YOj9z-353">
          <mxGeometry relative="1" as="geometry">
            <mxPoint x="246.014433902502" y="87" as="sourcePoint" />
          </mxGeometry>
        </mxCell>
        <mxCell id="biEdiNN_DH7vA-2YOj9z-141" value="" style="endArrow=classic;html=1;rounded=0;exitX=0.25;exitY=0;exitDx=0;exitDy=0;entryX=0.75;entryY=0;entryDx=0;entryDy=0;strokeColor=default;dashed=1;fontSize=13;" edge="1" source="biEdiNN_DH7vA-2YOj9z-137" target="biEdiNN_DH7vA-2YOj9z-135" parent="biEdiNN_DH7vA-2YOj9z-353">
          <mxGeometry width="50" height="50" relative="1" as="geometry">
            <mxPoint x="673.514433902502" y="77" as="sourcePoint" />
            <mxPoint x="723.514433902502" y="27" as="targetPoint" />
          </mxGeometry>
        </mxCell>
        <mxCell id="biEdiNN_DH7vA-2YOj9z-142" value="" style="endArrow=classic;html=1;rounded=0;exitX=0.75;exitY=0;exitDx=0;exitDy=0;entryX=0.25;entryY=0;entryDx=0;entryDy=0;dashed=1;fontSize=13;" edge="1" source="biEdiNN_DH7vA-2YOj9z-137" target="biEdiNN_DH7vA-2YOj9z-135" parent="biEdiNN_DH7vA-2YOj9z-353">
          <mxGeometry width="50" height="50" relative="1" as="geometry">
            <mxPoint x="613.514433902502" y="107" as="sourcePoint" />
            <mxPoint x="663.514433902502" y="57" as="targetPoint" />
          </mxGeometry>
        </mxCell>
        <mxCell id="biEdiNN_DH7vA-2YOj9z-152" value="&lt;font style=&quot;font-size: 13px;&quot;&gt;Encoder&lt;/font&gt;" style="text;html=1;strokeColor=none;fillColor=none;align=center;verticalAlign=middle;whiteSpace=wrap;rounded=0;dashed=1;fontSize=13;fontColor=#FFFFFF;" vertex="1" parent="biEdiNN_DH7vA-2YOj9z-353">
          <mxGeometry x="30.51443390250199" y="132" width="60" height="30" as="geometry" />
        </mxCell>
        <mxCell id="biEdiNN_DH7vA-2YOj9z-153" value="&lt;font style=&quot;font-size: 13px;&quot;&gt;Encoder&lt;/font&gt;" style="text;html=1;strokeColor=none;fillColor=none;align=center;verticalAlign=middle;whiteSpace=wrap;rounded=0;dashed=1;fontSize=13;fontColor=#FFFFFF;" vertex="1" parent="biEdiNN_DH7vA-2YOj9z-353">
          <mxGeometry x="216.014433902502" y="132" width="60" height="30" as="geometry" />
        </mxCell>
        <mxCell id="biEdiNN_DH7vA-2YOj9z-231" value="" style="edgeStyle=orthogonalEdgeStyle;rounded=0;orthogonalLoop=1;jettySize=auto;html=1;dashed=1;strokeColor=default;fontSize=13;fontColor=#000000;startArrow=none;startFill=0;entryX=0;entryY=0.5;entryDx=0;entryDy=0;" edge="1" parent="biEdiNN_DH7vA-2YOj9z-353" source="biEdiNN_DH7vA-2YOj9z-226">
          <mxGeometry relative="1" as="geometry">
            <mxPoint x="211.014433902502" y="55" as="targetPoint" />
          </mxGeometry>
        </mxCell>
        <mxCell id="biEdiNN_DH7vA-2YOj9z-226" value="&lt;font style=&quot;font-size: 13px;&quot;&gt;Crop&lt;/font&gt;" style="ellipse;whiteSpace=wrap;html=1;rounded=1;shadow=0;glass=0;sketch=0;strokeColor=#000000;fontSize=15;fontColor=#000000;fillColor=#FFFFFF;" vertex="1" parent="biEdiNN_DH7vA-2YOj9z-353">
          <mxGeometry x="133.514433902502" y="40" width="50" height="30" as="geometry" />
        </mxCell>
        <mxCell id="biEdiNN_DH7vA-2YOj9z-259" value="" style="group" vertex="1" connectable="0" parent="biEdiNN_DH7vA-2YOj9z-353">
          <mxGeometry x="228.514433902502" width="70" height="92" as="geometry" />
        </mxCell>
        <mxCell id="biEdiNN_DH7vA-2YOj9z-257" value="" style="whiteSpace=wrap;html=1;aspect=fixed;fillColor=#FFFFFF;fontSize=15;dashed=1;" vertex="1" parent="biEdiNN_DH7vA-2YOj9z-259">
          <mxGeometry width="70" height="70" as="geometry" />
        </mxCell>
        <mxCell id="biEdiNN_DH7vA-2YOj9z-258" value="ROI" style="whiteSpace=wrap;html=1;aspect=fixed;fillColor=#FFFFFF;fontSize=15;" vertex="1" parent="biEdiNN_DH7vA-2YOj9z-259">
          <mxGeometry x="10" y="10" width="50" height="50" as="geometry" />
        </mxCell>
        <mxCell id="biEdiNN_DH7vA-2YOj9z-263" value="" style="group" vertex="1" connectable="0" parent="biEdiNN_DH7vA-2YOj9z-259">
          <mxGeometry x="-6" y="6" width="70" height="86" as="geometry" />
        </mxCell>
        <mxCell id="biEdiNN_DH7vA-2YOj9z-264" value="" style="whiteSpace=wrap;html=1;aspect=fixed;fillColor=#FFFFFF;fontSize=15;dashed=1;" vertex="1" parent="biEdiNN_DH7vA-2YOj9z-263">
          <mxGeometry width="70" height="70" as="geometry" />
        </mxCell>
        <mxCell id="biEdiNN_DH7vA-2YOj9z-265" value="ROI" style="whiteSpace=wrap;html=1;aspect=fixed;fillColor=#FFFFFF;fontSize=15;" vertex="1" parent="biEdiNN_DH7vA-2YOj9z-263">
          <mxGeometry x="10" y="10" width="50" height="50" as="geometry" />
        </mxCell>
        <mxCell id="biEdiNN_DH7vA-2YOj9z-260" value="" style="group" vertex="1" connectable="0" parent="biEdiNN_DH7vA-2YOj9z-263">
          <mxGeometry x="-7" y="6" width="70" height="80" as="geometry" />
        </mxCell>
        <mxCell id="biEdiNN_DH7vA-2YOj9z-261" value="" style="whiteSpace=wrap;html=1;aspect=fixed;fillColor=#FFFFFF;fontSize=15;dashed=1;" vertex="1" parent="biEdiNN_DH7vA-2YOj9z-260">
          <mxGeometry width="70" height="70" as="geometry" />
        </mxCell>
        <mxCell id="biEdiNN_DH7vA-2YOj9z-262" value="ROI" style="whiteSpace=wrap;html=1;aspect=fixed;fillColor=#FFFFFF;fontSize=15;" vertex="1" parent="biEdiNN_DH7vA-2YOj9z-260">
          <mxGeometry x="10" y="10" width="50" height="50" as="geometry" />
        </mxCell>
        <mxCell id="biEdiNN_DH7vA-2YOj9z-266" value="" style="group" vertex="1" connectable="0" parent="biEdiNN_DH7vA-2YOj9z-260">
          <mxGeometry x="-6" y="5" width="70" height="70" as="geometry" />
        </mxCell>
        <mxCell id="biEdiNN_DH7vA-2YOj9z-267" value="" style="whiteSpace=wrap;html=1;aspect=fixed;fillColor=#FFFFFF;fontSize=15;dashed=1;" vertex="1" parent="biEdiNN_DH7vA-2YOj9z-266">
          <mxGeometry width="70" height="70" as="geometry" />
        </mxCell>
        <mxCell id="biEdiNN_DH7vA-2YOj9z-268" value="ROI" style="whiteSpace=wrap;html=1;aspect=fixed;fillColor=#FFFFFF;fontSize=15;" vertex="1" parent="biEdiNN_DH7vA-2YOj9z-266">
          <mxGeometry x="10" y="10" width="50" height="50" as="geometry" />
        </mxCell>
        <mxCell id="biEdiNN_DH7vA-2YOj9z-269" value="" style="group" vertex="1" connectable="0" parent="biEdiNN_DH7vA-2YOj9z-353">
          <mxGeometry x="21.51443390250199" y="1" width="87" height="87" as="geometry" />
        </mxCell>
        <mxCell id="biEdiNN_DH7vA-2YOj9z-270" value="Image" style="whiteSpace=wrap;html=1;aspect=fixed;fillColor=#FFFFFF;fontSize=15;" vertex="1" parent="biEdiNN_DH7vA-2YOj9z-269">
          <mxGeometry x="17" width="70" height="70" as="geometry" />
        </mxCell>
        <mxCell id="biEdiNN_DH7vA-2YOj9z-271" value="Image" style="whiteSpace=wrap;html=1;aspect=fixed;fillColor=#FFFFFF;fontSize=15;" vertex="1" parent="biEdiNN_DH7vA-2YOj9z-269">
          <mxGeometry x="11.5" y="5" width="70" height="70" as="geometry" />
        </mxCell>
        <mxCell id="biEdiNN_DH7vA-2YOj9z-272" value="Image" style="whiteSpace=wrap;html=1;aspect=fixed;fillColor=#FFFFFF;fontSize=15;" vertex="1" parent="biEdiNN_DH7vA-2YOj9z-269">
          <mxGeometry x="5.5" y="11" width="70" height="70" as="geometry" />
        </mxCell>
        <mxCell id="biEdiNN_DH7vA-2YOj9z-273" value="Image" style="whiteSpace=wrap;html=1;aspect=fixed;fillColor=#FFFFFF;fontSize=15;" vertex="1" parent="biEdiNN_DH7vA-2YOj9z-269">
          <mxGeometry y="17" width="70" height="70" as="geometry" />
        </mxCell>
        <mxCell id="biEdiNN_DH7vA-2YOj9z-330" value="" style="group" vertex="1" connectable="0" parent="biEdiNN_DH7vA-2YOj9z-353">
          <mxGeometry x="12.514433902501992" y="297" width="88" height="90" as="geometry" />
        </mxCell>
        <mxCell id="biEdiNN_DH7vA-2YOj9z-331" value="" style="whiteSpace=wrap;html=1;aspect=fixed;fillColor=#FFE599;fontSize=14;" vertex="1" parent="biEdiNN_DH7vA-2YOj9z-330">
          <mxGeometry x="18" width="70" height="70" as="geometry" />
        </mxCell>
        <mxCell id="biEdiNN_DH7vA-2YOj9z-332" value="" style="whiteSpace=wrap;html=1;aspect=fixed;fillColor=#FFE599;fontSize=14;" vertex="1" parent="biEdiNN_DH7vA-2YOj9z-330">
          <mxGeometry x="13" y="6" width="70" height="70" as="geometry" />
        </mxCell>
        <mxCell id="biEdiNN_DH7vA-2YOj9z-333" value="" style="whiteSpace=wrap;html=1;aspect=fixed;fillColor=#FFE599;fontSize=14;" vertex="1" parent="biEdiNN_DH7vA-2YOj9z-330">
          <mxGeometry x="6.5" y="13" width="70" height="70" as="geometry" />
        </mxCell>
        <mxCell id="biEdiNN_DH7vA-2YOj9z-334" value="Prediction" style="whiteSpace=wrap;html=1;aspect=fixed;fillColor=#FFE599;fontSize=14;" vertex="1" parent="biEdiNN_DH7vA-2YOj9z-330">
          <mxGeometry y="20" width="70" height="70" as="geometry" />
        </mxCell>
        <mxCell id="biEdiNN_DH7vA-2YOj9z-340" value="" style="group" vertex="1" connectable="0" parent="biEdiNN_DH7vA-2YOj9z-353">
          <mxGeometry x="195.514433902502" y="297" width="88" height="90" as="geometry" />
        </mxCell>
        <mxCell id="biEdiNN_DH7vA-2YOj9z-341" value="" style="whiteSpace=wrap;html=1;aspect=fixed;fillColor=#FFE599;fontSize=14;" vertex="1" parent="biEdiNN_DH7vA-2YOj9z-340">
          <mxGeometry x="18" width="70" height="70" as="geometry" />
        </mxCell>
        <mxCell id="biEdiNN_DH7vA-2YOj9z-342" value="" style="whiteSpace=wrap;html=1;aspect=fixed;fillColor=#FFE599;fontSize=14;" vertex="1" parent="biEdiNN_DH7vA-2YOj9z-340">
          <mxGeometry x="13" y="6" width="70" height="70" as="geometry" />
        </mxCell>
        <mxCell id="biEdiNN_DH7vA-2YOj9z-343" value="" style="whiteSpace=wrap;html=1;aspect=fixed;fillColor=#FFE599;fontSize=14;" vertex="1" parent="biEdiNN_DH7vA-2YOj9z-340">
          <mxGeometry x="6.5" y="13" width="70" height="70" as="geometry" />
        </mxCell>
        <mxCell id="biEdiNN_DH7vA-2YOj9z-344" value="Prediction" style="whiteSpace=wrap;html=1;aspect=fixed;fillColor=#FFE599;fontSize=14;" vertex="1" parent="biEdiNN_DH7vA-2YOj9z-340">
          <mxGeometry y="20" width="70" height="70" as="geometry" />
        </mxCell>
        <mxCell id="biEdiNN_DH7vA-2YOj9z-357" value="(b) Cascade Structure" style="text;html=1;strokeColor=none;fillColor=none;align=center;verticalAlign=middle;whiteSpace=wrap;rounded=0;shadow=0;glass=0;sketch=0;fontSize=15;fontColor=#000000;" vertex="1" parent="biEdiNN_DH7vA-2YOj9z-360">
          <mxGeometry x="69.51443390250199" y="402" width="150" height="30" as="geometry" />
        </mxCell>
        <mxCell id="biEdiNN_DH7vA-2YOj9z-361" value="" style="group" vertex="1" connectable="0" parent="1">
          <mxGeometry x="200" y="703" width="150" height="432" as="geometry" />
        </mxCell>
        <mxCell id="biEdiNN_DH7vA-2YOj9z-352" value="" style="group" vertex="1" connectable="0" parent="biEdiNN_DH7vA-2YOj9z-361">
          <mxGeometry x="18.48556609749801" width="121.02886780500398" height="388" as="geometry" />
        </mxCell>
        <mxCell id="biEdiNN_DH7vA-2YOj9z-115" style="edgeStyle=orthogonalEdgeStyle;rounded=0;orthogonalLoop=1;jettySize=auto;html=1;entryX=0.5;entryY=0;entryDx=0;entryDy=0;" edge="1" parent="biEdiNN_DH7vA-2YOj9z-352" source="biEdiNN_DH7vA-2YOj9z-106">
          <mxGeometry relative="1" as="geometry">
            <mxPoint x="60.51443390250199" y="298" as="targetPoint" />
          </mxGeometry>
        </mxCell>
        <mxCell id="biEdiNN_DH7vA-2YOj9z-106" value="&lt;font color=&quot;#ffffff&quot; style=&quot;font-size: 13px;&quot;&gt;Decoder&lt;/font&gt;" style="shape=trapezoid;perimeter=trapezoidPerimeter;whiteSpace=wrap;html=1;fixedSize=1;fillColor=#32788A;strokeColor=#FFFFFF;fontSize=13;rounded=1;" vertex="1" parent="biEdiNN_DH7vA-2YOj9z-352">
          <mxGeometry x="0.5144339025019917" y="208" width="120" height="60" as="geometry" />
        </mxCell>
        <mxCell id="biEdiNN_DH7vA-2YOj9z-112" style="edgeStyle=orthogonalEdgeStyle;rounded=0;orthogonalLoop=1;jettySize=auto;html=1;exitX=0.5;exitY=0;exitDx=0;exitDy=0;entryX=0.5;entryY=0;entryDx=0;entryDy=0;fontSize=13;" edge="1" parent="biEdiNN_DH7vA-2YOj9z-352" source="biEdiNN_DH7vA-2YOj9z-107" target="biEdiNN_DH7vA-2YOj9z-106">
          <mxGeometry relative="1" as="geometry" />
        </mxCell>
        <mxCell id="biEdiNN_DH7vA-2YOj9z-107" value="" style="shape=trapezoid;perimeter=trapezoidPerimeter;whiteSpace=wrap;html=1;fixedSize=1;rotation=-179;fillColor=#8F3D2C;size=17.5;fontSize=13;rounded=1;" vertex="1" parent="biEdiNN_DH7vA-2YOj9z-352">
          <mxGeometry x="0.5144339025019917" y="118" width="120" height="60" as="geometry" />
        </mxCell>
        <mxCell id="biEdiNN_DH7vA-2YOj9z-114" style="edgeStyle=orthogonalEdgeStyle;rounded=0;orthogonalLoop=1;jettySize=auto;html=1;exitX=0.5;exitY=1;exitDx=0;exitDy=0;entryX=0.5;entryY=1;entryDx=0;entryDy=0;fontSize=13;" edge="1" parent="biEdiNN_DH7vA-2YOj9z-352" target="biEdiNN_DH7vA-2YOj9z-107">
          <mxGeometry relative="1" as="geometry">
            <mxPoint x="60.51443390250199" y="88" as="sourcePoint" />
          </mxGeometry>
        </mxCell>
        <mxCell id="biEdiNN_DH7vA-2YOj9z-116" value="" style="endArrow=classic;html=1;rounded=0;exitX=0.25;exitY=0;exitDx=0;exitDy=0;entryX=0.75;entryY=0;entryDx=0;entryDy=0;strokeColor=default;dashed=1;fontSize=13;" edge="1" parent="biEdiNN_DH7vA-2YOj9z-352" source="biEdiNN_DH7vA-2YOj9z-107" target="biEdiNN_DH7vA-2YOj9z-106">
          <mxGeometry width="50" height="50" relative="1" as="geometry">
            <mxPoint x="488.014433902502" y="78" as="sourcePoint" />
            <mxPoint x="538.014433902502" y="28" as="targetPoint" />
          </mxGeometry>
        </mxCell>
        <mxCell id="biEdiNN_DH7vA-2YOj9z-117" value="" style="endArrow=classic;html=1;rounded=0;exitX=0.75;exitY=0;exitDx=0;exitDy=0;entryX=0.25;entryY=0;entryDx=0;entryDy=0;dashed=1;fontSize=13;" edge="1" parent="biEdiNN_DH7vA-2YOj9z-352" source="biEdiNN_DH7vA-2YOj9z-107" target="biEdiNN_DH7vA-2YOj9z-106">
          <mxGeometry width="50" height="50" relative="1" as="geometry">
            <mxPoint x="428.014433902502" y="108" as="sourcePoint" />
            <mxPoint x="478.014433902502" y="58" as="targetPoint" />
          </mxGeometry>
        </mxCell>
        <mxCell id="biEdiNN_DH7vA-2YOj9z-151" value="&lt;font style=&quot;font-size: 13px;&quot;&gt;Encoder&lt;/font&gt;" style="text;html=1;strokeColor=none;fillColor=none;align=center;verticalAlign=middle;whiteSpace=wrap;rounded=0;dashed=1;fontSize=13;fontColor=#FFFFFF;" vertex="1" parent="biEdiNN_DH7vA-2YOj9z-352">
          <mxGeometry x="30.51443390250199" y="133" width="60" height="30" as="geometry" />
        </mxCell>
        <mxCell id="biEdiNN_DH7vA-2YOj9z-249" value="" style="group" vertex="1" connectable="0" parent="biEdiNN_DH7vA-2YOj9z-352">
          <mxGeometry x="23.01443390250199" width="87" height="87" as="geometry" />
        </mxCell>
        <mxCell id="biEdiNN_DH7vA-2YOj9z-245" value="Image" style="whiteSpace=wrap;html=1;aspect=fixed;fillColor=#FFFFFF;fontSize=15;" vertex="1" parent="biEdiNN_DH7vA-2YOj9z-249">
          <mxGeometry x="17" width="70" height="70" as="geometry" />
        </mxCell>
        <mxCell id="biEdiNN_DH7vA-2YOj9z-246" value="Image" style="whiteSpace=wrap;html=1;aspect=fixed;fillColor=#FFFFFF;fontSize=15;" vertex="1" parent="biEdiNN_DH7vA-2YOj9z-249">
          <mxGeometry x="11.5" y="5" width="70" height="70" as="geometry" />
        </mxCell>
        <mxCell id="biEdiNN_DH7vA-2YOj9z-247" value="Image" style="whiteSpace=wrap;html=1;aspect=fixed;fillColor=#FFFFFF;fontSize=15;" vertex="1" parent="biEdiNN_DH7vA-2YOj9z-249">
          <mxGeometry x="5.5" y="11" width="70" height="70" as="geometry" />
        </mxCell>
        <mxCell id="biEdiNN_DH7vA-2YOj9z-248" value="Image" style="whiteSpace=wrap;html=1;aspect=fixed;fillColor=#FFFFFF;fontSize=15;" vertex="1" parent="biEdiNN_DH7vA-2YOj9z-249">
          <mxGeometry y="17" width="70" height="70" as="geometry" />
        </mxCell>
        <mxCell id="biEdiNN_DH7vA-2YOj9z-254" value="" style="group" vertex="1" connectable="0" parent="biEdiNN_DH7vA-2YOj9z-352">
          <mxGeometry x="10.014433902501992" y="298" width="88" height="90" as="geometry" />
        </mxCell>
        <mxCell id="biEdiNN_DH7vA-2YOj9z-251" value="" style="whiteSpace=wrap;html=1;aspect=fixed;fillColor=#FFE599;fontSize=14;" vertex="1" parent="biEdiNN_DH7vA-2YOj9z-254">
          <mxGeometry x="18" width="70" height="70" as="geometry" />
        </mxCell>
        <mxCell id="biEdiNN_DH7vA-2YOj9z-252" value="" style="whiteSpace=wrap;html=1;aspect=fixed;fillColor=#FFE599;fontSize=14;" vertex="1" parent="biEdiNN_DH7vA-2YOj9z-254">
          <mxGeometry x="13" y="6" width="70" height="70" as="geometry" />
        </mxCell>
        <mxCell id="biEdiNN_DH7vA-2YOj9z-253" value="" style="whiteSpace=wrap;html=1;aspect=fixed;fillColor=#FFE599;fontSize=14;" vertex="1" parent="biEdiNN_DH7vA-2YOj9z-254">
          <mxGeometry x="6.5" y="13" width="70" height="70" as="geometry" />
        </mxCell>
        <mxCell id="biEdiNN_DH7vA-2YOj9z-250" value="Prediction" style="whiteSpace=wrap;html=1;aspect=fixed;fillColor=#FFE599;fontSize=14;" vertex="1" parent="biEdiNN_DH7vA-2YOj9z-254">
          <mxGeometry y="20" width="70" height="70" as="geometry" />
        </mxCell>
        <mxCell id="biEdiNN_DH7vA-2YOj9z-356" value="(a) End-to-End Structure" style="text;html=1;strokeColor=none;fillColor=none;align=center;verticalAlign=middle;whiteSpace=wrap;rounded=0;shadow=0;glass=0;sketch=0;fontSize=15;fontColor=#000000;" vertex="1" parent="biEdiNN_DH7vA-2YOj9z-361">
          <mxGeometry x="-10" y="402" width="170" height="30" as="geometry" />
        </mxCell>
        <mxCell id="biEdiNN_DH7vA-2YOj9z-362" value="" style="group" vertex="1" connectable="0" parent="1">
          <mxGeometry x="818.485566097498" y="702" width="296.514433902502" height="433" as="geometry" />
        </mxCell>
        <mxCell id="biEdiNN_DH7vA-2YOj9z-354" value="" style="group" vertex="1" connectable="0" parent="biEdiNN_DH7vA-2YOj9z-362">
          <mxGeometry width="296.514433902502" height="388" as="geometry" />
        </mxCell>
        <mxCell id="biEdiNN_DH7vA-2YOj9z-156" style="edgeStyle=orthogonalEdgeStyle;rounded=0;orthogonalLoop=1;jettySize=auto;html=1;entryX=0.5;entryY=0;entryDx=0;entryDy=0;" edge="1" source="biEdiNN_DH7vA-2YOj9z-157" parent="biEdiNN_DH7vA-2YOj9z-354">
          <mxGeometry relative="1" as="geometry">
            <mxPoint x="60.51443390250199" y="298" as="targetPoint" />
          </mxGeometry>
        </mxCell>
        <mxCell id="biEdiNN_DH7vA-2YOj9z-157" value="&lt;font color=&quot;#ffffff&quot; style=&quot;font-size: 13px;&quot;&gt;Decoder&lt;/font&gt;" style="shape=trapezoid;perimeter=trapezoidPerimeter;whiteSpace=wrap;html=1;fixedSize=1;fillColor=#32788A;strokeColor=#FFFFFF;fontSize=13;rounded=1;" vertex="1" parent="biEdiNN_DH7vA-2YOj9z-354">
          <mxGeometry x="0.5144339025019917" y="208" width="120" height="60" as="geometry" />
        </mxCell>
        <mxCell id="biEdiNN_DH7vA-2YOj9z-158" style="edgeStyle=orthogonalEdgeStyle;rounded=0;orthogonalLoop=1;jettySize=auto;html=1;exitX=0.5;exitY=0;exitDx=0;exitDy=0;entryX=0.5;entryY=0;entryDx=0;entryDy=0;fontSize=13;" edge="1" source="biEdiNN_DH7vA-2YOj9z-159" target="biEdiNN_DH7vA-2YOj9z-157" parent="biEdiNN_DH7vA-2YOj9z-354">
          <mxGeometry relative="1" as="geometry" />
        </mxCell>
        <mxCell id="biEdiNN_DH7vA-2YOj9z-159" value="" style="shape=trapezoid;perimeter=trapezoidPerimeter;whiteSpace=wrap;html=1;fixedSize=1;rotation=-179;fillColor=#8F3D2C;size=17.5;fontSize=13;rounded=1;" vertex="1" parent="biEdiNN_DH7vA-2YOj9z-354">
          <mxGeometry x="0.5144339025019917" y="118" width="120" height="60" as="geometry" />
        </mxCell>
        <mxCell id="biEdiNN_DH7vA-2YOj9z-160" style="edgeStyle=orthogonalEdgeStyle;rounded=0;orthogonalLoop=1;jettySize=auto;html=1;exitX=0.5;exitY=1;exitDx=0;exitDy=0;entryX=0.5;entryY=1;entryDx=0;entryDy=0;fontSize=13;" edge="1" target="biEdiNN_DH7vA-2YOj9z-159" parent="biEdiNN_DH7vA-2YOj9z-354">
          <mxGeometry relative="1" as="geometry">
            <mxPoint x="60.51443390250199" y="88" as="sourcePoint" />
          </mxGeometry>
        </mxCell>
        <mxCell id="biEdiNN_DH7vA-2YOj9z-163" value="" style="endArrow=classic;html=1;rounded=0;exitX=0.25;exitY=0;exitDx=0;exitDy=0;entryX=0.75;entryY=0;entryDx=0;entryDy=0;strokeColor=default;dashed=1;fontSize=13;" edge="1" source="biEdiNN_DH7vA-2YOj9z-159" target="biEdiNN_DH7vA-2YOj9z-157" parent="biEdiNN_DH7vA-2YOj9z-354">
          <mxGeometry width="50" height="50" relative="1" as="geometry">
            <mxPoint x="488.014433902502" y="78" as="sourcePoint" />
            <mxPoint x="538.014433902502" y="28" as="targetPoint" />
          </mxGeometry>
        </mxCell>
        <mxCell id="biEdiNN_DH7vA-2YOj9z-164" value="" style="endArrow=classic;html=1;rounded=0;exitX=0.75;exitY=0;exitDx=0;exitDy=0;entryX=0.25;entryY=0;entryDx=0;entryDy=0;dashed=1;fontSize=13;" edge="1" source="biEdiNN_DH7vA-2YOj9z-159" target="biEdiNN_DH7vA-2YOj9z-157" parent="biEdiNN_DH7vA-2YOj9z-354">
          <mxGeometry width="50" height="50" relative="1" as="geometry">
            <mxPoint x="428.014433902502" y="108" as="sourcePoint" />
            <mxPoint x="478.014433902502" y="58" as="targetPoint" />
          </mxGeometry>
        </mxCell>
        <mxCell id="biEdiNN_DH7vA-2YOj9z-165" value="&lt;font style=&quot;font-size: 13px;&quot;&gt;Encoder&lt;/font&gt;" style="text;html=1;strokeColor=none;fillColor=none;align=center;verticalAlign=middle;whiteSpace=wrap;rounded=0;dashed=1;fontSize=13;fontColor=#FFFFFF;" vertex="1" parent="biEdiNN_DH7vA-2YOj9z-354">
          <mxGeometry x="30.51443390250199" y="133" width="60" height="30" as="geometry" />
        </mxCell>
        <mxCell id="biEdiNN_DH7vA-2YOj9z-169" value="Classifier" style="rounded=1;whiteSpace=wrap;html=1;strokeColor=#314354;fontSize=13;fontColor=#ffffff;fillColor=#647687;" vertex="1" parent="biEdiNN_DH7vA-2YOj9z-354">
          <mxGeometry x="186.514433902502" y="123" width="110" height="50" as="geometry" />
        </mxCell>
        <mxCell id="biEdiNN_DH7vA-2YOj9z-170" style="edgeStyle=orthogonalEdgeStyle;curved=1;rounded=0;orthogonalLoop=1;jettySize=auto;html=1;exitX=0;exitY=0.5;exitDx=0;exitDy=0;entryX=0;entryY=0.5;entryDx=0;entryDy=0;strokeColor=default;fontSize=13;fontColor=#FFFFFF;startArrow=none;startFill=0;" edge="1" parent="biEdiNN_DH7vA-2YOj9z-354" source="biEdiNN_DH7vA-2YOj9z-159" target="biEdiNN_DH7vA-2YOj9z-169">
          <mxGeometry relative="1" as="geometry" />
        </mxCell>
        <mxCell id="biEdiNN_DH7vA-2YOj9z-172" value="&lt;font style=&quot;font-size: 15px;&quot; color=&quot;#000000&quot;&gt;P&lt;/font&gt;" style="ellipse;whiteSpace=wrap;html=1;aspect=fixed;strokeColor=#000000;fontSize=13;fontColor=#FFFFFF;fillColor=#FFFFFF;" vertex="1" parent="biEdiNN_DH7vA-2YOj9z-354">
          <mxGeometry x="219.014433902502" y="215.5" width="45" height="45" as="geometry" />
        </mxCell>
        <mxCell id="biEdiNN_DH7vA-2YOj9z-173" style="edgeStyle=orthogonalEdgeStyle;curved=1;rounded=0;orthogonalLoop=1;jettySize=auto;html=1;exitX=0.5;exitY=1;exitDx=0;exitDy=0;entryX=0.5;entryY=0;entryDx=0;entryDy=0;strokeColor=default;fontSize=13;fontColor=#FFFFFF;startArrow=none;startFill=0;" edge="1" parent="biEdiNN_DH7vA-2YOj9z-354" source="biEdiNN_DH7vA-2YOj9z-169" target="biEdiNN_DH7vA-2YOj9z-172">
          <mxGeometry relative="1" as="geometry" />
        </mxCell>
        <mxCell id="biEdiNN_DH7vA-2YOj9z-227" value="&lt;font style=&quot;font-size: 12px;&quot;&gt;Revise&lt;/font&gt;" style="ellipse;whiteSpace=wrap;html=1;rounded=1;shadow=0;glass=0;sketch=0;strokeColor=#000000;fontSize=15;fontColor=#000000;fillColor=#FFFFFF;" vertex="1" parent="biEdiNN_DH7vA-2YOj9z-354">
          <mxGeometry x="126.51443390250199" y="327" width="50" height="30" as="geometry" />
        </mxCell>
        <mxCell id="biEdiNN_DH7vA-2YOj9z-238" style="edgeStyle=orthogonalEdgeStyle;rounded=1;orthogonalLoop=1;jettySize=auto;html=1;exitX=0;exitY=0.5;exitDx=0;exitDy=0;dashed=1;strokeColor=default;fontSize=13;fontColor=#000000;startArrow=none;startFill=0;" edge="1" parent="biEdiNN_DH7vA-2YOj9z-354" source="biEdiNN_DH7vA-2YOj9z-172" target="biEdiNN_DH7vA-2YOj9z-227">
          <mxGeometry relative="1" as="geometry" />
        </mxCell>
        <mxCell id="biEdiNN_DH7vA-2YOj9z-295" value="" style="endArrow=classic;html=1;rounded=1;dashed=1;strokeColor=default;fontSize=13;fontColor=#000000;entryX=0;entryY=0.5;entryDx=0;entryDy=0;" edge="1" parent="biEdiNN_DH7vA-2YOj9z-354" target="biEdiNN_DH7vA-2YOj9z-227">
          <mxGeometry width="50" height="50" relative="1" as="geometry">
            <mxPoint x="100.51443390250199" y="342" as="sourcePoint" />
            <mxPoint x="145.514433902502" y="398" as="targetPoint" />
          </mxGeometry>
        </mxCell>
        <mxCell id="biEdiNN_DH7vA-2YOj9z-297" value="" style="endArrow=classic;html=1;rounded=1;dashed=1;strokeColor=default;fontSize=13;fontColor=#000000;exitX=1;exitY=0.5;exitDx=0;exitDy=0;" edge="1" parent="biEdiNN_DH7vA-2YOj9z-354" source="biEdiNN_DH7vA-2YOj9z-227">
          <mxGeometry width="50" height="50" relative="1" as="geometry">
            <mxPoint x="169.014433902502" y="312" as="sourcePoint" />
            <mxPoint x="200.514433902502" y="342" as="targetPoint" />
          </mxGeometry>
        </mxCell>
        <mxCell id="biEdiNN_DH7vA-2YOj9z-324" value="" style="group" vertex="1" connectable="0" parent="biEdiNN_DH7vA-2YOj9z-354">
          <mxGeometry x="22.51443390250199" width="87" height="87" as="geometry" />
        </mxCell>
        <mxCell id="biEdiNN_DH7vA-2YOj9z-325" value="Image" style="whiteSpace=wrap;html=1;aspect=fixed;fillColor=#FFFFFF;fontSize=15;" vertex="1" parent="biEdiNN_DH7vA-2YOj9z-324">
          <mxGeometry x="17" width="70" height="70" as="geometry" />
        </mxCell>
        <mxCell id="biEdiNN_DH7vA-2YOj9z-326" value="Image" style="whiteSpace=wrap;html=1;aspect=fixed;fillColor=#FFFFFF;fontSize=15;" vertex="1" parent="biEdiNN_DH7vA-2YOj9z-324">
          <mxGeometry x="11.5" y="5" width="70" height="70" as="geometry" />
        </mxCell>
        <mxCell id="biEdiNN_DH7vA-2YOj9z-327" value="Image" style="whiteSpace=wrap;html=1;aspect=fixed;fillColor=#FFFFFF;fontSize=15;" vertex="1" parent="biEdiNN_DH7vA-2YOj9z-324">
          <mxGeometry x="5.5" y="11" width="70" height="70" as="geometry" />
        </mxCell>
        <mxCell id="biEdiNN_DH7vA-2YOj9z-328" value="Image" style="whiteSpace=wrap;html=1;aspect=fixed;fillColor=#FFFFFF;fontSize=15;" vertex="1" parent="biEdiNN_DH7vA-2YOj9z-324">
          <mxGeometry y="17" width="70" height="70" as="geometry" />
        </mxCell>
        <mxCell id="biEdiNN_DH7vA-2YOj9z-335" value="" style="group" vertex="1" connectable="0" parent="biEdiNN_DH7vA-2YOj9z-354">
          <mxGeometry x="200.514433902502" y="297" width="88" height="90" as="geometry" />
        </mxCell>
        <mxCell id="biEdiNN_DH7vA-2YOj9z-336" value="" style="whiteSpace=wrap;html=1;aspect=fixed;fillColor=#FFE599;fontSize=14;" vertex="1" parent="biEdiNN_DH7vA-2YOj9z-335">
          <mxGeometry x="18" width="70" height="70" as="geometry" />
        </mxCell>
        <mxCell id="biEdiNN_DH7vA-2YOj9z-337" value="" style="whiteSpace=wrap;html=1;aspect=fixed;fillColor=#FFE599;fontSize=14;" vertex="1" parent="biEdiNN_DH7vA-2YOj9z-335">
          <mxGeometry x="13" y="6" width="70" height="70" as="geometry" />
        </mxCell>
        <mxCell id="biEdiNN_DH7vA-2YOj9z-338" value="" style="whiteSpace=wrap;html=1;aspect=fixed;fillColor=#FFE599;fontSize=14;" vertex="1" parent="biEdiNN_DH7vA-2YOj9z-335">
          <mxGeometry x="6.5" y="13" width="70" height="70" as="geometry" />
        </mxCell>
        <mxCell id="biEdiNN_DH7vA-2YOj9z-339" value="Prediction" style="whiteSpace=wrap;html=1;aspect=fixed;fillColor=#FFE599;fontSize=14;" vertex="1" parent="biEdiNN_DH7vA-2YOj9z-335">
          <mxGeometry y="20" width="70" height="70" as="geometry" />
        </mxCell>
        <mxCell id="biEdiNN_DH7vA-2YOj9z-345" value="" style="group" vertex="1" connectable="0" parent="biEdiNN_DH7vA-2YOj9z-354">
          <mxGeometry x="12.514433902501992" y="298" width="88" height="90" as="geometry" />
        </mxCell>
        <mxCell id="biEdiNN_DH7vA-2YOj9z-346" value="" style="whiteSpace=wrap;html=1;aspect=fixed;fillColor=#FFE599;fontSize=14;" vertex="1" parent="biEdiNN_DH7vA-2YOj9z-345">
          <mxGeometry x="18" width="70" height="70" as="geometry" />
        </mxCell>
        <mxCell id="biEdiNN_DH7vA-2YOj9z-347" value="" style="whiteSpace=wrap;html=1;aspect=fixed;fillColor=#FFE599;fontSize=14;" vertex="1" parent="biEdiNN_DH7vA-2YOj9z-345">
          <mxGeometry x="13" y="6" width="70" height="70" as="geometry" />
        </mxCell>
        <mxCell id="biEdiNN_DH7vA-2YOj9z-348" value="" style="whiteSpace=wrap;html=1;aspect=fixed;fillColor=#FFE599;fontSize=14;" vertex="1" parent="biEdiNN_DH7vA-2YOj9z-345">
          <mxGeometry x="6.5" y="13" width="70" height="70" as="geometry" />
        </mxCell>
        <mxCell id="biEdiNN_DH7vA-2YOj9z-349" value="Prediction" style="whiteSpace=wrap;html=1;aspect=fixed;fillColor=#FFE599;fontSize=14;" vertex="1" parent="biEdiNN_DH7vA-2YOj9z-345">
          <mxGeometry y="20" width="70" height="70" as="geometry" />
        </mxCell>
        <mxCell id="biEdiNN_DH7vA-2YOj9z-358" value="(c) Multi-Task Learning Structure" style="text;html=1;strokeColor=none;fillColor=none;align=center;verticalAlign=middle;whiteSpace=wrap;rounded=0;shadow=0;glass=0;sketch=0;fontSize=15;fontColor=#000000;" vertex="1" parent="biEdiNN_DH7vA-2YOj9z-362">
          <mxGeometry x="34.32" y="403" width="227.88" height="30" as="geometry" />
        </mxCell>
        <mxCell id="biEdiNN_DH7vA-2YOj9z-363" value="" style="endArrow=none;html=1;rounded=1;strokeColor=default;fontSize=13;fontColor=#000000;dashed=1;" edge="1" parent="1">
          <mxGeometry width="50" height="50" relative="1" as="geometry">
            <mxPoint x="1160" y="1100" as="sourcePoint" />
            <mxPoint x="1160" y="690" as="targetPoint" />
          </mxGeometry>
        </mxCell>
        <mxCell id="biEdiNN_DH7vA-2YOj9z-399" value="" style="group" vertex="1" connectable="0" parent="1">
          <mxGeometry x="1201.995566097498" y="702" width="301.02886780500376" height="433" as="geometry" />
        </mxCell>
        <mxCell id="biEdiNN_DH7vA-2YOj9z-355" value="" style="group" vertex="1" connectable="0" parent="biEdiNN_DH7vA-2YOj9z-399">
          <mxGeometry width="301.02886780500376" height="388" as="geometry" />
        </mxCell>
        <mxCell id="biEdiNN_DH7vA-2YOj9z-181" style="edgeStyle=orthogonalEdgeStyle;rounded=0;orthogonalLoop=1;jettySize=auto;html=1;entryX=0.5;entryY=0;entryDx=0;entryDy=0;" edge="1" source="biEdiNN_DH7vA-2YOj9z-182" parent="biEdiNN_DH7vA-2YOj9z-355">
          <mxGeometry relative="1" as="geometry">
            <mxPoint x="240.51443390250188" y="297" as="targetPoint" />
          </mxGeometry>
        </mxCell>
        <mxCell id="biEdiNN_DH7vA-2YOj9z-182" value="&lt;font color=&quot;#ffffff&quot; style=&quot;font-size: 13px;&quot;&gt;Decoder&lt;/font&gt;" style="shape=trapezoid;perimeter=trapezoidPerimeter;whiteSpace=wrap;html=1;fixedSize=1;fillColor=#32788A;strokeColor=#FFFFFF;fontSize=13;rounded=1;" vertex="1" parent="biEdiNN_DH7vA-2YOj9z-355">
          <mxGeometry x="180.51443390250188" y="207" width="120" height="60" as="geometry" />
        </mxCell>
        <mxCell id="biEdiNN_DH7vA-2YOj9z-183" style="edgeStyle=orthogonalEdgeStyle;rounded=0;orthogonalLoop=1;jettySize=auto;html=1;exitX=0.5;exitY=0;exitDx=0;exitDy=0;entryX=0.5;entryY=0;entryDx=0;entryDy=0;fontSize=13;" edge="1" source="biEdiNN_DH7vA-2YOj9z-185" target="biEdiNN_DH7vA-2YOj9z-182" parent="biEdiNN_DH7vA-2YOj9z-355">
          <mxGeometry relative="1" as="geometry" />
        </mxCell>
        <mxCell id="biEdiNN_DH7vA-2YOj9z-185" value="" style="shape=trapezoid;perimeter=trapezoidPerimeter;whiteSpace=wrap;html=1;fixedSize=1;rotation=-179;fillColor=#8F3D2C;size=17.5;fontSize=13;shadow=0;rounded=1;" vertex="1" parent="biEdiNN_DH7vA-2YOj9z-355">
          <mxGeometry x="180.51443390250188" y="117" width="120" height="60" as="geometry" />
        </mxCell>
        <mxCell id="biEdiNN_DH7vA-2YOj9z-186" style="edgeStyle=orthogonalEdgeStyle;rounded=0;orthogonalLoop=1;jettySize=auto;html=1;exitX=0.5;exitY=1;exitDx=0;exitDy=0;entryX=0.5;entryY=1;entryDx=0;entryDy=0;fontSize=13;" edge="1" parent="biEdiNN_DH7vA-2YOj9z-355">
          <mxGeometry relative="1" as="geometry">
            <mxPoint x="60.51443390250188" y="88" as="sourcePoint" />
            <mxPoint x="61.03800609561995" y="118.00456914530832" as="targetPoint" />
          </mxGeometry>
        </mxCell>
        <mxCell id="biEdiNN_DH7vA-2YOj9z-241" value="" style="edgeStyle=orthogonalEdgeStyle;rounded=1;orthogonalLoop=1;jettySize=auto;html=1;dashed=1;strokeColor=default;fontSize=13;fontColor=#000000;startArrow=none;startFill=0;" edge="1" parent="biEdiNN_DH7vA-2YOj9z-355" target="biEdiNN_DH7vA-2YOj9z-228">
          <mxGeometry relative="1" as="geometry">
            <mxPoint x="95.51443390250188" y="53" as="sourcePoint" />
          </mxGeometry>
        </mxCell>
        <mxCell id="biEdiNN_DH7vA-2YOj9z-191" value="" style="endArrow=classic;html=1;rounded=0;exitX=0.25;exitY=0;exitDx=0;exitDy=0;entryX=0.75;entryY=0;entryDx=0;entryDy=0;strokeColor=default;dashed=1;fontSize=13;" edge="1" source="biEdiNN_DH7vA-2YOj9z-185" target="biEdiNN_DH7vA-2YOj9z-182" parent="biEdiNN_DH7vA-2YOj9z-355">
          <mxGeometry width="50" height="50" relative="1" as="geometry">
            <mxPoint x="668.0144339025019" y="77" as="sourcePoint" />
            <mxPoint x="718.0144339025019" y="27" as="targetPoint" />
          </mxGeometry>
        </mxCell>
        <mxCell id="biEdiNN_DH7vA-2YOj9z-192" value="" style="endArrow=classic;html=1;rounded=0;exitX=0.75;exitY=0;exitDx=0;exitDy=0;entryX=0.25;entryY=0;entryDx=0;entryDy=0;dashed=1;fontSize=13;" edge="1" source="biEdiNN_DH7vA-2YOj9z-185" target="biEdiNN_DH7vA-2YOj9z-182" parent="biEdiNN_DH7vA-2YOj9z-355">
          <mxGeometry width="50" height="50" relative="1" as="geometry">
            <mxPoint x="608.0144339025019" y="107" as="sourcePoint" />
            <mxPoint x="658.0144339025019" y="57" as="targetPoint" />
          </mxGeometry>
        </mxCell>
        <mxCell id="biEdiNN_DH7vA-2YOj9z-193" value="&lt;font style=&quot;font-size: 13px;&quot;&gt;Encoder&lt;/font&gt;" style="text;html=1;strokeColor=none;fillColor=none;align=center;verticalAlign=middle;whiteSpace=wrap;rounded=1;dashed=1;fontSize=13;fontColor=#FFFFFF;" vertex="1" parent="biEdiNN_DH7vA-2YOj9z-355">
          <mxGeometry x="210.51443390250188" y="126" width="60" height="44" as="geometry" />
        </mxCell>
        <mxCell id="biEdiNN_DH7vA-2YOj9z-207" style="edgeStyle=orthogonalEdgeStyle;curved=1;rounded=0;orthogonalLoop=1;jettySize=auto;html=1;strokeColor=default;fontSize=13;fontColor=#000000;startArrow=none;startFill=0;" edge="1" parent="biEdiNN_DH7vA-2YOj9z-355" source="biEdiNN_DH7vA-2YOj9z-195">
          <mxGeometry relative="1" as="geometry">
            <mxPoint x="60.51443390250188" y="308" as="targetPoint" />
          </mxGeometry>
        </mxCell>
        <mxCell id="biEdiNN_DH7vA-2YOj9z-195" value="Classifier" style="rounded=1;whiteSpace=wrap;html=1;strokeColor=#314354;fontSize=13;fontColor=#ffffff;fillColor=#647687;glass=0;" vertex="1" parent="biEdiNN_DH7vA-2YOj9z-355">
          <mxGeometry x="5.514433902501878" y="212" width="110" height="50" as="geometry" />
        </mxCell>
        <mxCell id="biEdiNN_DH7vA-2YOj9z-206" style="edgeStyle=orthogonalEdgeStyle;curved=1;rounded=0;orthogonalLoop=1;jettySize=auto;html=1;exitX=0.5;exitY=0;exitDx=0;exitDy=0;strokeColor=default;fontSize=13;fontColor=#000000;startArrow=none;startFill=0;entryX=0.5;entryY=0;entryDx=0;entryDy=0;" edge="1" parent="biEdiNN_DH7vA-2YOj9z-355" source="biEdiNN_DH7vA-2YOj9z-204" target="biEdiNN_DH7vA-2YOj9z-195">
          <mxGeometry relative="1" as="geometry">
            <mxPoint x="60.08586247393032" y="218" as="targetPoint" />
          </mxGeometry>
        </mxCell>
        <mxCell id="biEdiNN_DH7vA-2YOj9z-204" value="" style="shape=trapezoid;perimeter=trapezoidPerimeter;whiteSpace=wrap;html=1;fixedSize=1;rotation=-179;fillColor=#8F3D2C;size=17.5;fontSize=13;shadow=0;rounded=1;" vertex="1" parent="biEdiNN_DH7vA-2YOj9z-355">
          <mxGeometry x="0.514433902501878" y="118" width="120" height="60" as="geometry" />
        </mxCell>
        <mxCell id="biEdiNN_DH7vA-2YOj9z-205" value="&lt;font style=&quot;font-size: 13px;&quot;&gt;Encoder&lt;/font&gt;" style="text;html=1;strokeColor=none;fillColor=none;align=center;verticalAlign=middle;whiteSpace=wrap;rounded=0;dashed=1;fontSize=13;fontColor=#FFFFFF;" vertex="1" parent="biEdiNN_DH7vA-2YOj9z-355">
          <mxGeometry x="30.514433902501878" y="133" width="60" height="30" as="geometry" />
        </mxCell>
        <mxCell id="biEdiNN_DH7vA-2YOj9z-223" value="&lt;font style=&quot;font-size: 15px;&quot; color=&quot;#000000&quot;&gt;P&lt;/font&gt;" style="ellipse;whiteSpace=wrap;html=1;aspect=fixed;strokeColor=#000000;fontSize=13;fontColor=#FFFFFF;fillColor=#FFFFFF;" vertex="1" parent="biEdiNN_DH7vA-2YOj9z-355">
          <mxGeometry x="38.01443390250188" y="310.5" width="45" height="45" as="geometry" />
        </mxCell>
        <mxCell id="biEdiNN_DH7vA-2YOj9z-322" value="" style="edgeStyle=orthogonalEdgeStyle;rounded=1;orthogonalLoop=1;jettySize=auto;html=1;dashed=1;strokeColor=default;fontSize=13;fontColor=#000000;startArrow=none;startFill=0;" edge="1" parent="biEdiNN_DH7vA-2YOj9z-355" target="biEdiNN_DH7vA-2YOj9z-321">
          <mxGeometry relative="1" as="geometry">
            <mxPoint x="179.51443390250188" y="53" as="sourcePoint" />
          </mxGeometry>
        </mxCell>
        <mxCell id="biEdiNN_DH7vA-2YOj9z-228" value="&lt;font style=&quot;font-size: 12px;&quot;&gt;Filter&lt;/font&gt;" style="ellipse;whiteSpace=wrap;html=1;rounded=1;shadow=0;glass=0;sketch=0;strokeColor=#000000;fontSize=15;fontColor=#000000;fillColor=#FFFFFF;" vertex="1" parent="biEdiNN_DH7vA-2YOj9z-355">
          <mxGeometry x="129.51443390250188" y="38" width="50" height="30" as="geometry" />
        </mxCell>
        <mxCell id="biEdiNN_DH7vA-2YOj9z-243" style="edgeStyle=orthogonalEdgeStyle;rounded=1;orthogonalLoop=1;jettySize=auto;html=1;entryX=0.5;entryY=1;entryDx=0;entryDy=0;dashed=1;strokeColor=default;fontSize=13;fontColor=#000000;startArrow=none;startFill=0;" edge="1" parent="biEdiNN_DH7vA-2YOj9z-355" source="biEdiNN_DH7vA-2YOj9z-223" target="biEdiNN_DH7vA-2YOj9z-228">
          <mxGeometry relative="1" as="geometry" />
        </mxCell>
        <mxCell id="biEdiNN_DH7vA-2YOj9z-304" value="&lt;font style=&quot;font-size: 13px;&quot;&gt;Encoder&lt;/font&gt;" style="text;html=1;strokeColor=none;fillColor=none;align=center;verticalAlign=middle;whiteSpace=wrap;rounded=1;dashed=1;fontSize=13;fontColor=#FFFFFF;" vertex="1" parent="biEdiNN_DH7vA-2YOj9z-355">
          <mxGeometry x="30.514433902501878" y="133" width="60" height="30" as="geometry" />
        </mxCell>
        <mxCell id="biEdiNN_DH7vA-2YOj9z-306" value="" style="group" vertex="1" connectable="0" parent="biEdiNN_DH7vA-2YOj9z-355">
          <mxGeometry x="189.51443390250188" y="298" width="88" height="90" as="geometry" />
        </mxCell>
        <mxCell id="biEdiNN_DH7vA-2YOj9z-307" value="" style="whiteSpace=wrap;html=1;aspect=fixed;fillColor=#FFE599;fontSize=14;" vertex="1" parent="biEdiNN_DH7vA-2YOj9z-306">
          <mxGeometry x="18" width="70" height="70" as="geometry" />
        </mxCell>
        <mxCell id="biEdiNN_DH7vA-2YOj9z-308" value="Prediction" style="whiteSpace=wrap;html=1;aspect=fixed;fillColor=#FFE599;fontSize=14;" vertex="1" parent="biEdiNN_DH7vA-2YOj9z-306">
          <mxGeometry x="13" y="6" width="70" height="70" as="geometry" />
        </mxCell>
        <mxCell id="biEdiNN_DH7vA-2YOj9z-311" value="" style="group" vertex="1" connectable="0" parent="biEdiNN_DH7vA-2YOj9z-355">
          <mxGeometry x="21.514433902501878" width="87" height="87" as="geometry" />
        </mxCell>
        <mxCell id="biEdiNN_DH7vA-2YOj9z-312" value="Image" style="whiteSpace=wrap;html=1;aspect=fixed;fillColor=#FFFFFF;fontSize=15;" vertex="1" parent="biEdiNN_DH7vA-2YOj9z-311">
          <mxGeometry x="17" width="70" height="70" as="geometry" />
        </mxCell>
        <mxCell id="biEdiNN_DH7vA-2YOj9z-313" value="Image" style="whiteSpace=wrap;html=1;aspect=fixed;fillColor=#FFFFFF;fontSize=15;" vertex="1" parent="biEdiNN_DH7vA-2YOj9z-311">
          <mxGeometry x="11.5" y="5" width="70" height="70" as="geometry" />
        </mxCell>
        <mxCell id="biEdiNN_DH7vA-2YOj9z-314" value="Image" style="whiteSpace=wrap;html=1;aspect=fixed;fillColor=#FFFFFF;fontSize=15;" vertex="1" parent="biEdiNN_DH7vA-2YOj9z-311">
          <mxGeometry x="5.5" y="11" width="70" height="70" as="geometry" />
        </mxCell>
        <mxCell id="biEdiNN_DH7vA-2YOj9z-315" value="Image" style="whiteSpace=wrap;html=1;aspect=fixed;fillColor=#FFFFFF;fontSize=15;" vertex="1" parent="biEdiNN_DH7vA-2YOj9z-311">
          <mxGeometry y="17" width="70" height="70" as="geometry" />
        </mxCell>
        <mxCell id="biEdiNN_DH7vA-2YOj9z-317" value="" style="group" vertex="1" connectable="0" parent="biEdiNN_DH7vA-2YOj9z-355">
          <mxGeometry x="205.51443390250188" width="87" height="87" as="geometry" />
        </mxCell>
        <mxCell id="biEdiNN_DH7vA-2YOj9z-320" value="Image" style="whiteSpace=wrap;html=1;aspect=fixed;fillColor=#FFFFFF;fontSize=15;" vertex="1" parent="biEdiNN_DH7vA-2YOj9z-317">
          <mxGeometry x="5.5" y="11" width="70" height="70" as="geometry" />
        </mxCell>
        <mxCell id="biEdiNN_DH7vA-2YOj9z-321" value="Image" style="whiteSpace=wrap;html=1;aspect=fixed;fillColor=#FFFFFF;fontSize=15;" vertex="1" parent="biEdiNN_DH7vA-2YOj9z-317">
          <mxGeometry y="17" width="70" height="70" as="geometry" />
        </mxCell>
        <mxCell id="biEdiNN_DH7vA-2YOj9z-323" value="" style="edgeStyle=orthogonalEdgeStyle;rounded=1;orthogonalLoop=1;jettySize=auto;html=1;strokeColor=default;fontSize=13;fontColor=#000000;startArrow=none;startFill=0;" edge="1" parent="biEdiNN_DH7vA-2YOj9z-355" source="biEdiNN_DH7vA-2YOj9z-321">
          <mxGeometry relative="1" as="geometry">
            <mxPoint x="240.51443390250188" y="118" as="targetPoint" />
          </mxGeometry>
        </mxCell>
        <mxCell id="biEdiNN_DH7vA-2YOj9z-398" value="(d) Ours" style="text;html=1;strokeColor=none;fillColor=none;align=center;verticalAlign=middle;whiteSpace=wrap;rounded=0;shadow=0;glass=0;sketch=0;fontSize=15;fontColor=#000000;" vertex="1" parent="biEdiNN_DH7vA-2YOj9z-399">
          <mxGeometry x="35.51443390250188" y="403" width="230" height="30" as="geometry" />
        </mxCell>
        <mxCell id="biEdiNN_DH7vA-2YOj9z-402" value="" style="group" vertex="1" connectable="0" parent="1">
          <mxGeometry x="80" y="310" width="87" height="87" as="geometry" />
        </mxCell>
        <mxCell id="biEdiNN_DH7vA-2YOj9z-403" value="Image" style="whiteSpace=wrap;html=1;aspect=fixed;fillColor=#FFFFFF;fontSize=15;" vertex="1" parent="biEdiNN_DH7vA-2YOj9z-402">
          <mxGeometry x="17" width="70" height="70" as="geometry" />
        </mxCell>
        <mxCell id="biEdiNN_DH7vA-2YOj9z-404" value="Image" style="whiteSpace=wrap;html=1;aspect=fixed;fillColor=#FFFFFF;fontSize=15;" vertex="1" parent="biEdiNN_DH7vA-2YOj9z-402">
          <mxGeometry x="11.5" y="5" width="70" height="70" as="geometry" />
        </mxCell>
        <mxCell id="biEdiNN_DH7vA-2YOj9z-405" value="Image" style="whiteSpace=wrap;html=1;aspect=fixed;fillColor=#FFFFFF;fontSize=15;" vertex="1" parent="biEdiNN_DH7vA-2YOj9z-402">
          <mxGeometry x="5.5" y="11" width="70" height="70" as="geometry" />
        </mxCell>
        <mxCell id="biEdiNN_DH7vA-2YOj9z-406" value="Image" style="whiteSpace=wrap;html=1;aspect=fixed;fillColor=#FFFFFF;fontSize=15;" vertex="1" parent="biEdiNN_DH7vA-2YOj9z-402">
          <mxGeometry y="17" width="70" height="70" as="geometry" />
        </mxCell>
        <mxCell id="biEdiNN_DH7vA-2YOj9z-407" value="" style="shape=image;verticalLabelPosition=bottom;labelBackgroundColor=default;verticalAlign=top;aspect=fixed;imageAspect=0;image=data:image/png,iVBORw0KGgoAAAANSUhEUgAAANsAAADgCAYAAACKPhMuAAAgAElEQVR4nOy915Nc13U9vDrnMN09OQckEmCQKFoU9ZNtWeVXlx/9b/rJVX6yLSvQEglSABEHg8mhp9N0zt9De+3Z9/S5PQ3IhfoeZlehMNNz+9wTd1g7HI/X6x0Oh0N4PB4AwHA4BAB4PB7oz9+FzO/pNvXvJt30LvbJ1r7H45HPBoOBtT2Px4NwOAwAePjwIX7+85+j2Wziv//7vwEAr1+/Rq/Xs/bRNke6XfbNrc9un9n6bPuOOWY+x++xDbc5NL9rG4d+16Q29Pc9Hg/8fj9mZmYAACsrKwgGgzg4OAAAXFxcoN/v39im/rv++X32H7/HvWJ+Znv/pGds52CadTX/7n2vkdzSLd3SO5OfP5jSAbBz4PchG5eZht5Vstr6anI2SoJGo4FCoYBGo4FarQYAwoFtc+A2L5rMz91+d/uurc8kr9frWB+/3w+/3y+/9/t9dLtd9Hq9idx1Wpo0brbJvw8GA3S7XQBAJBLB/Pw8Op0OAKBSqaDRaEw1F7Zn3pemGff7SjW39t2kM8mvX+ImLt+Hpj2kWo14X7VVv89s11RTqCZeXl7i1atX6HQ6uLq6cjxjW/BpN+1fs0EmtRUIBBCLxZBMJgEAiUQCsVgMPp8PANDtdlEqlXB5eSnMo9frjc3DpHeZa2Z+Z5IKFggEpF8LCwvyeaFQwPHxMfr9/sS23Oiv2RNmX90O8vu0f5NK6nrY9JffhbNMc6BumqybJv2m/kyyO2w2Dj9rt9vI5/Not9toNpuO75j22TQ2pts49aLo9qcZIw9SNBrF7OwslpaWMD8/DwBIp9OIRCLyTK/XQ6lUwtHREd6+fQsAOD8/R7vdtvbdbRzvSxxDu92G1+vF8vIyAKBcLqNer6NYLDqenSR1p7Ep3eZaf2+STWX7/SbJZPbhXfoMqMP2PjRJIpodu2mCbnqOf3frg1u/vF6nWcrN6fF40Gq10Gg0hOtOAnVu6se7kHkAzb8BcIAOa2tr2NjYwMLCAhKJBAAgGAw6nh8Oh0ilUpiZmUEqlQIAvHjxAsfHx2g0GjcCBW5j1eSm9g0GA5Gmx8fHyOVycthWVlZQLBbRarVQr9cnvkerpTayqbbsj9frnWpMtu9Oy/zMfrwr3QIkt3RLH4gcku0mnXMa6HTSc6a0uEkiTgNETJI8+m9erxehUEig/0AggE6ng3a77cpJJ/Vr2mfe1VD3eEbuibm5OWxvbwMANjY2kMvlHGojAEe/vV4vfD4f/H4/QqEQgJH08/l8ODw8RKPRGPuO2zhu4tw2m47q6vn5udjCABAKhZDL5VCpVARE4d80TYsXvAuuMI15M0nLeFe66fsT1UibyJ5WhN50cM1nzPe6/f1dRPhwOJTNOTc3h+XlZflusVjE5eWlA72bpm+2v7upHZNUZ/MwUt1NpVJYW1vD9vY2VlZWAADJZFIACNqXXq8XwWBQvjccDtFutzEcDgVE2drakncdHh4CAOr1+nut47Qqfr1ex97eHsrlMgBgdnYWiUQCuVwOrVYLAGTe3d41jRlhm/Np9tykNicx8Wnxi0nk54Nujduk0buQG0R60/sm0bR9BYBcLgcA+OlPf4qtrS1cXl4CAL799lt0u10HpzeBEdu73PpjcsdJaJe5qOFwWPq5vb2Nra0t5HI5hxQeDoc4OzvD/v4+gBHEfufOHcTjcQBAq9XC27dvMRwOsbm5CQCIx+NYW1uDx+MRprO/v49arWYdq1sfzXFNkgT9fh+1Wk0kXbPZxNLSEhKJBBYXFwGMpGuxWLQeOBvpd7/vIbjJTnyfNvXz0+zbW5vtlm7pA9GYU9ukSVx5GnKz1WyqjI3T2jjsNDq6x+NBLBbDvXv3AAD3799HKBSSMKJyuTxmO9ykGr4PFO32OdXCZDKJ1dVVbG1tAYBIgWAwKIijz+fD8fExvvvuO+zt7QEA1tfXsb6+Lm02m028efMG7XYb2WwWwEh1jsViWF9fh98/WupAIID9/X1UKpUxqW4bz/sgc8PhUOa2XC4jEAggEomIZIvH49jb28P5+bk8N2nt/xrJc5Nab/u72760jf0m0s84nNpmh222hW5g0qGbVg2bpsO2tm9S9/x+P5LJJDKZDICRjbO/v4+nT58CGDlb3xcYsUHgbmPRffV4PAiFQg7H79raGpaWlgSuD4VCCAaDiMfj8r3T01N899132N3dlec2NjZEhQRGfrZ6vY58Po98Pg8AmJ+fh9/vRzQaxdramrTPzU6VmiqfbU5NQGWaTaip2+2iWCwimUwKc9jY2MDs7CyePn0qzK/ZbN64qW8C1N6VJjFP8922z9/VLnQ4tafp0Lu+cJI98L7Gqdv3CBb4/X6Ew2EEg0EUCgUAwA8//IC3b9/K4hIZs/XN7fNJ9qsN8PB4RkG6kUgEwMgRvbCwgKWlJczNzQEAYrGY45lkMolkMol+v4/d3V0AwB/+8Ae8fv0a8/Pz+MlPfgIA2NzcRCgUksPg9/sRDAZRq9VkjDs7O4jH42g0GiJJFxcXEY/Hkclk8ObNGwDAyckJqtWqIwjbZCCTNvkkjWg4HKLVaiGfz4tje2FhAXfu3EEsFkM0GgUAvHnzBrVaDf1+35WpTftuG01zUCfZ2bb2pn0vyf/XqI/vgmpN0xk3x+SkfgEj1SgajQrk7fV64ff7MRgMBFBoNpuoVCpjaovug9tk3zQ/Ho/HAb0Do6iPRCKBTCaD2dlZACNkLpvNimMaGMHgmusnk0lUKhX88MMP+K//+i8AwN7eHhYXF/Gzn/1MngsEAg4kNRKJYG5uDru7uzg5OQEwQlxXV1cRiURkoxOt3NnZEXXz+PgYx8fHIhGvrq7Q6XQwGAyEgd10ACZJvOFwiFKphCdPngAYASR37tzB3NycqPlUlbV6z4P3Lu92o3dRU6dp22RItwDJLd3S/4/IFfo3P3N7xk263QQr6zZ0W/ozNxtIUzwex8rKCtbX1wXevri4QKFQwNXVlYQI0Qd1k4o6DdBBCUYAIxQKSZAwfVyZTAYzMzNIJBKiKlHqAdfO5Vwuh48++khsy9PTUzx79gy//e1v8erVKwAjtetnP/sZtra2ZIymvRkOh7G8vIxMJiOq8/7+Ph49eoS1tTXp1+HhIWq1Gnw+n7gb0uk0VldXxYY7OzvDxcUFrq6uxK9HSWdTMacBufr9Pk5PTwGMtIxyuYy1tTWZk8XFRUSjURQKBVQqFQBAtVpFo9EYU/mnAdb05/ybm/lh7rdpgCA3W24SuaKRNhE7aTDTgCa2dvT3tNrCz8zfgZGayM3z0Ucf4dGjR5idnZXo/WaziaOjI1SrVVkozRjMMehJ9vl88g8YHaxAIOCIPonFYkgkEgJQxONxxONxxGIxeYbRGz6fT9pnKkq/35fD9emnn2J+fl6Ch3/44Qf88Y9/xKtXr8SOe/jwITY2NkR1ZFs6WdTn8yGbzWJhYQHn5+cARsmwr169wvz8PO7cuQNgdOBfvHghDmZ+ls1mHbGYlUoF5XJZ1M9isYhKpYJ6vS5qXq/XQ7/ftwJNNrCFP5fLZTx9+hSnp6eiymazWQegxXU8OzvD8fExAKBUKsn4p93sbj7BaQEu/fy0oJ8bjUX9mx0wJ2sSOmOjSRzE9pzeQOZzPp8PXq8X0WhUAl3v3r2Lubk5NBoNAQbevn0rTlMeGtpUBAoCgQCCwSACgcDYZ8FgUA5NOBxGOBxGJBKRzR+JRBAOh4Urs1+ahsOhHCy2PxgM0O/3EYlE8OjRIwAjJ/bu7i5evHgBAHj69CmeP3+OdruNBw8eABhFgoRCIWuaip6rRCKBpaUlvHz5EgCQz+fx8uVLrK6uihTb2dlBpVLB4eGhbNx+vy/5cRxPNBrFwsKCHKxms4larYZKpYJqtQpgJHkofbQE5CFk21xXTa1WC6enpyiVSgBG6PDi4iJWVlawtLQEYMTUNjc3ZV1fvHiBw8PDMZfNu2hCk2iaQ3sTTRI6Y7GRk9DG94Xp+b9Nck76DoEHblZu+kQigXQ6DWC0aC9fvsTe3p4sSq1WQywWQzweFzCCyJc+RDxY3GR+v19URB7SQCAgyKIJFnADafVKS0TgOqkTgBz+O3fu4LPPPgMw4tZ7e3u4uLgAMGIUhUIBs7OzEhuZSqXkHQSBPB4Pms2mo5xCMBjE3NycuAeOj49xcHCAw8NDSc35+OOPcffuXZTLZQmpYtwo22q1WhgOR6FufF80GkUmk0G/35eD1Ol00Gw20Wg0RF2v1+uo1+sSi9lsNtFsNtFutx3zwH88OBcXF6hWq5JsCox8ialUSkCUUCgEn8+Hk5MTeUajl5qm2avv4kq4SepNOmSikU31plu6pVv6q2ksENkNMHhfiNSmftrURBvQEgwGMT8/Lw7gcDiMwWCAXq8nNsezZ89Qq9XQ7XZF37979y4ymYxkM7Mtre7x3Vr9o/1mk8CULHqs/J/qqVZJfT6f9JPqWjgcxtraGr788kt57vXr1yiXy2Jv5vN5DIdDLCwsiDTy+XwiTQi2JBIJVKtVkU60d6PRqIx5MBigUCigUCjg7OwMwMjRvb6+jnw+jx9//NEx96YD2xwz/+mk1lgs5rBn+v2+Q2J1u120Wi202235rN1uo91uo9VqifrJn5vNpqjUFxcXWFxclHlIpVLY2dlBOBwWsIXuHDcAz1xH/Tdzrd+Xpj0XN4Zr6QYnASRuL+CApvGfERDhZtnc3MTHH38sk91qtXB0dORQI8LhsNgkNLaj0aiof7pPbn4affhN5sANSFUSgNT+0ICN3+93qLyRSET6QNQyl8vh3r17WFhYwPPnzwGM0MderyfJl/V6HaFQCHNzc6ICa8bA9ukM1+raYDBwpNhQ1SSwwfdtbW3h0aNH4lc7Pz93qId8l0mcP9N21M+ToXHM9J3qg0u7XL+z1+vJASTjqVaruLq6kgiXWCyGYDCI5eVlAciKxSKKxSKq1aoc3EmqpTZRJqGptu9Momme85sAxiS43407TKJ30Yt50HZ2dgCMkLrFxUXR9U9PT1EsFhEKhST9ZG5uTlJQdLoJ0TqT9Ma1bSizz9w8GqH0er2OzcMNnkqlBLhhqFSn05ENlU6nsbi4iF6vJ/A8uT0PW7fbFfuIB0sjqdom1LYln2NfOdZut4t6vS5zWCqVcH5+jnv37uHzzz8HAPzxj39ErVYT21XPkamF6HGbc8q/u2kB5kb3+/0yRo/Hg1QqJYeQc8FsegCiJfh8PmFEq6ur6Ha7OD09lYibfD7vWvPkJunn9rOt/9pennTQZD5dn7ilW7ql/1O6sQbJTWLXRqb+z89u8tPRQU0ULp1O4/Ly0pH4mMlksLS0JGqEz+cbk2RaEpg2minZNCytv69VRsL/5ML8jNw1k8kgm80KZwZGSOCf//xn7O7uilqUy+Xw61//Gg8ePHCoVN1uV+D0Xq+HaDTqCESmpDDnj64Ec8ym81xz+Xa7jbOzM9y/fx9fffUVgJE9+/3334ta2Wq1MBgMHFJTz6Op/Ziuj263K5KUfbeF4pnah/ZJsl/hcFjQ1W63K9n1HFMoFBI3BRHqJ0+e4OTkBJ1Ox3XPTouy27S+aVVLU6vzm2qh7sBNPjI3R7F+btKgtLE9MzOD1dVVLC0tCTx/dHSEQqEg31tbW8Pc3BwCgYAskq3aLg+SbWPoA2X2j7ZGJBKRwzwzMyNgC/uVSCQcEDswyj5+/PixVFf+4x//KAdNq5GdTgezs7OO9xNC5+90S5jzbDIU+rT0/JpqpP6+OQf8+xdffIG1tTWJIz0/P0elUkGr1XI4sIFR7Cad38w00H6vwWCAdrstajEjQEzwhSqxyZRNNVWrsj6fT1w4fCfnJBaLCZPudDpSF9RsfxLDd4Pw3Q7qTSaWSRKI7Ha6bQv2rgiOeSj5fyAQkOj37e1tLCwsYDgcis+p2WxiZmZGnJzk9rZSBlqK6ZAmjRhqu4vhVgy1Aq43UiqVcqB+8XgcgUBAvstaIJRG3377Lf7t3/4Nv/3tbyWSXh8ybeuxfJ4GEPRhI9qqa6PYtIrBYCAoHNvp9/sol8sS7kQgQn8Wj8fFr6Zpbm5O0Nzz83NcXFyg1Wo5HP7c1Ays9vv9giJq9JEOcGAEYJyfn6NQKMh8dbtdOUS6/+Y+5Fzoz7iGnD8eNh3AMDs7i5WVFXS7XRn3NGQD86bV7GzM2zwnApBMC45MKz5v+jwQCGBlZQUPHz4EACwvL6PZbOLg4EAWbnl5GcvLy7LgdITqfmgVRsPPLGpKVS+VSiGVSsnvyWQS8Xgc4XDY4bgNh8PodruCgBGI0GBEo9HAxcUFvvnmGwDAv/7rv+J3v/sd8vn8GCfVyNzS0hKWlpYkEgUYqUpXV1eiavZ6PVxeXmJ3d1ckyMzMjMMFwbH2ej3H76VSCT/++KNE/RPIOTk5EYd/LpeTz6nqnZ+fO1Jznj17hsPDQ/T7fUn4fPjwIe7fv49sNivrEQwGkUgk0O12BcSgikctwOv1olqt4uzsDEdHRwBGsZeMW+U889Bo4Iqqp97IXH+ttjLDg8wtHA5jcXHRwYyq1ar1LoRp1MmbXATTnAngFiC5pVv6YOQ3xaYmN3tsGm4wyZ/l9XoxNzeHBw8eSAZxu93G0dERut2u5GwtLi46HLqae2mDne+i6jc7O4vl5WUsLCyIdKBqqPPNvF4v2u22qDdUUc3QIo9nFApFKVKpVLC/vy+S7dtvv8Xl5aUDiNBgBf2En332GTY2NtDv90V1DYVCqFQqDl9Sr9fDs2fPxOD/5JNPEAwGHUG/9Hdx7I1GA/v7+zg8PBRbcnl5GaVSCcViUYJ579+/L0mmdAxfXFygVCrhL3/5CwDgz3/+M/b29lCpVGS+1tbW8Jvf/Ab/9E//JOvDGv4sfQ5Agr+5FvF4HJFIBOvr62IOVCoVVCoVXFxcCChTKBRQq9XQ6XRk7mkaaM2FvjnT7uQacW1nZmbQ6/XkuycnJ45yeqZJY9I06uO7mlVSFmEasolgtxdOAkhSqRS2t7extLQkzlbWz9je3hZfFeDMqLYd/n6/j2g0itXVVYmh29zcRDqdFjuG3+33+6KiUhXRB4tqDC+oACCqGh2ufOdwOBRfWaVScbxHjzcej4vhvr29jX6/j6OjI9l4dDzzYN27dw/tdht7e3t4/fo1gFFVYR5Y9qvZbDrUyHK5jLOzM0kMBUb25vHxMX788UdhKHR+HxwcSPtU57gW9G3VajV5X6FQEB/nv/zLv8gYGfDN9q+urtDr9Rw1T7j5qT6HQiHMz88jm81idXUVwMg3VigUUCqVxM5iZJAGSLhOuoq1NikAOJBcHsBEIoHT01PJiOBY9ZrpPfuuuMQ05ID+bQdjmtNrO2i273HgKysrWFtbc2RSV6tVOYAkbmrdlpZ0wEiKPXr0CJ988okc0uFwiGKxiKurK7EliHxyQcLhMDyeUU0Q2mw8kLqvPp8P7XZb2gNGUD/RQBLtID2XdNTSAR8Oh1EqleDxXBf8IbjAkLSHDx9KXyl5jo+PkclkxEnO72kAqFqtwu/3Y2trS7QF9uHy8lIkT6fTQafTwcHBgdhQw+FQbFyOnQxHz/Xh4SH+8z//U1wGW1tbEuHBfhCJ5GHT2Qr63gHa1ZSAa2trmJ+fR7VadWQC5PN5OXymxNNrZuILvHSEaVCLi4tYXV2VyJ1Xr15JDU29Zvy+bkv/zVzfm0h/78ao/0n0Liqkz+cT5HFnZwfJZBJHR0eygVdWVrCysiKqHNvX0C8A8f9wc37xxRe4f/++I/X/8vISxWLREY/HqANuKKqH2o2ggSIdvVEsFnF4eOgokKpz5QjS6I1JxjAzMyNhZDTwq9WqIK5UbehqSCaTCIfDuHfvnszNyckJNjc3MTMz4whv0nPd7/cxMzOD5eVl2cDdbheJRAKpVEo2MCVYvV6X8bCv3Jh+v1/SgzQD6Xa72N3dFXVzcXER7XYblUplrAqzDp0iyKTdFBwHJUwymZRYS6KdrVYLl5eXogKfnp6iUqk41EOCRppRUn2PRCIOpkmGBYyYzu7uLlqt1lQoo0nvctDEfLrxG7d0S7f0f0JjpewmwZ83OQQ1me0lEgmxJQjzl0ol4fo6E5nclByRbXW7XQyHQywvL+Prr78GMMp5urq6wsXFxVhulIZ64/G4cE9gBER0Oh0HZ6OU0xEQ+Xwee3t7KBaL0o94PI5CoSDcm+M0oyR8Ph/S6bS4Gyg1h8OhIwGz3W6LxB0OhwKq0E47OztDoVBAKpVywODmWjGplaoyHeT6HjcCQjoXDrhOIAVGUrPZbDoAGI/HI5WMHz9+DGCUJc/77XT5dObfsS2qpFqFp3pOO7jdbktfKeXn5+cF7AJGEn53dxdHR0cOqWzGqmq/m3bw+3w+cWVsbm7i4uLC9Uqt9/Upm6QBFtdMbbcvmjqum99Ci+ZgMIjV1VUBCjweD87OzhAMBrGxsQFgtFHoQ9GopVYrh8NRae1f/epXkuZ/fHyMw8NDRKNRUUkuLy/FsKY6yCgG/t7pdJDP59Hr9QScCIfDAqLwsLHqFBMqgdFhPjw8FDWPh9qcCx42qmfNZlMyBNhWs9l0BNuSYcRiMdkY+XwepVIJ/X7f4YPSERidTkcyDzSQwLqRHDed0LQL+Zy2jRuNhviozPVut9t49uwZAOBPf/oT5ufnHVEkw+FQisMCo8DnarWKVqslKGkwGBR7UK8P79/Wh01XJ5ufn8fi4iJ++OEHsb2q1aocJM2ITH8n54prFIvFJDjBdmWYJht+MY1vzdwTE2+xsR0m/SI3HVd/x+v1IpPJYGtrSyb79PQUtVoNa2tr8hntAzMaXxvfGxsb+Pu//3tsbW0JqvTy5UtUq1VEIhGRFqyTqGPtaDtwgxF+jkajcpivrq5k45FzlstlycfigeBho+FOaewwhv1+zM7OYn19XUoSXFxcYDAYIB6Py7OEu3WkO6Ub3RaJREI2tC7M6vP5ZJPX63XMzMw44hm1LUYksNlsol6vIxKJyDyTCelMbZsDmPNIG+p3v/sdPvroIySTSRlPpVJBOp2Ww1ar1SRkS/ehWCxiMBiI9A6Hw6hUKpIyA4yQznQ6LdrPysqK2K6ch2+//RblctnK7GwlNrQTnSk7poai9/Ake85GkxBN10DkaSNG3CJN+FkkEsHq6iqy2awY6WdnZ0in0wKYAM68MW4CqnNEKL/66ivMzc3h5cuXAltTvSsWizJpjG/Ud04Hg0GZXP4+MzPjqCVSr9fRarWkii8AqfbEvDB+dnp66gg/IqNg5MT8/DwePnyI9fV1OTRUy1KplER5MPlTG/KUTjraxVT9qPZRDavX68jlcg5pRxVLl4dotVqo1WqIx+OOCxVZzJVtU200uXm/35dxv3z5Er1eD9vb23IgKDE4ZjIPMhk+Q5eLmbxLcAaARNYQlT07O8Pq6iqWl5fxxRdfABihnd988w0uLy8dYXFapSSZ4XqMItIHcNJ+v8m9ZTPHdHu3AMkt3dIHIglEtoEfpso4DdSv7S1gFNc3NzcnESLAiIMsLi4iGAw6fFXk6pp7J5NJ/PSnPwUwAlYODg7w5s0bkTz0qQyHQwE/0uk0otGoBMMCI98YbQVgpLZ4vV40Gg2RDo1GQ9QYtn92diaqkPb/lMtlaYsZ1DrLfGlpCaurq+KjAyAFhuj7AkaSjVKXz9BW5XioFVQqFVG7+F72gTYqVUfOM4OOKVUuLi5QqVSwtrbmAGVmZ2dFNWcftBqmtRxKgkKhIOtMNTgejzsqQ6dSKfh8PnS7XTEZEomEOPOpWlJSa9ub6iwl3dHRkaRc8SKSu3fvot/v45tvvpEgAx3Hyj7rSCAAAsSkUimR6LwO2c18epffrWqkKfqm0U1tSI154Oh3yeVyCIVCODs7k816584dJJNJR+qFPmhcOL/fj4cPH+Lu3bsARrYeL9rjIc3lctjY2EAmk3HUcWQIke6jPljD4XUNevaLaRlUG4GRzVGr1dBsNgUQqdfrjmh0HjTt6M7n89jf3xfEExiplrFYDPV6XXL0qtWqoHCcBy44wYNcLoe3b9/i8vJSQqU0wqjnnaAI2+LvbL/f7+Py8hLtdltUvWg0img0Kr6/dDrtYExsW/v0gBEoU61WcX5+7nBiJxIJmVOv1yvpSTrEjmAODxuDiXVYHIlt05Y+Pj6WA7+1tYWNjQ20Wi38z//8j6yZjXF3u13H7UHpdBqZTEbWh6F609IkldG0+QAjn81sSBud+sRPOtXD4SgMilwsl8uh2+0in8/LYVhYWIDH43F4/rVNwEVeXV3FZ599Jou7v7+Pq6srB5dcX1/HwsKCo/ZGNBpFMBhEJpMRm+j8/NwRmlWr1WSj0H4qlUpSQoDzwsPCcmwAxpy9OgmVh/Tw8BD1eh21Wk02VCKRQK/Xw8XFhYAM7XYb6XRanmFbOkqCVZVLpZJI62w26ygcS4RT940bTh82n8+Hy8tL5PN5QWGpBXDT5XI5pNNpRyFXvbH0nmDiK2McvV4vms2mI4VodnYWqVRK+srQrV6vJ1KFyZ/cF5x7vWbValVCrljAaDgcYmdnB48ePZJ9880336Db7SIUCjn2l2bkoVAImUzGEUUyHA7FhTSNpLrJLWCerVub7ZZu6QPRjaXszM/dHOCmX41IYzKZFB8RYwTj8bj1hhJgZGeQA96/fx+ZTEbyrDqdDgKBALLZrCCUPp8Pz549E84KjDjz5uYmlpaWRNJovRwYSbpisYhCoSDq0+XlJRqNhsOfxRArHfqlHe8AHBA6qd1uo1wui8oJQDKfz87OxD4aDoeOsuX6qinOCe9ry+fzggRSBaNPijGIZmYE/+lwqnK5jNPTU/FfeTwedDodsZVYasBENtmmifoxZAuAJLDy+V6vh0gkgnQ6LZKUdzP4/X7RPIBREPbMzIzDJuz3+9L3mZkZCTDnnigUCoJ+fvnllwBGCPWPP/7oCIhmOJ0OzYvH45ibmxN1mnfGHR0dWdxLYyQAACAASURBVONc3Wgaswp4j0Bk/WJbJ7xeL7LZrBiwyWQSp6enSKVSYtxr94AZ4+bxeMQuuXPnDi4vL0XN8/v9crcZQYcffvgBR0dHDqez3+/Hq1ev8ODBA+lHJpORpE9gdNiOjo5QKpVkwcvlskTTa0iaRrou121L59dlC+i7SiQSjmRR1q+nTUOViraEzljmeAi86JJ3PEA8pDwYbmYB24/H47i4uMDp6alE3BPA0PGMgUAAfr9/LN5Tu2aomukkzU6ng3K57LDvWM+SDNjn8yGVSokLgPPSaDRwcnIidSPPz8/R7XZFBWZ58jt37sh4Li4uUC6XcXR0JInIX3zxhWSH6yAAPT8EZJLJpDCPhYUFYZK0z918ye9Csi/1RNqiQ6bRS/V3Q6EQVldX5cDwgrulpSVH8VBOAIkcOZFIyKTF43E8efJEbAemmvAmTgCSA6cDltvtNk5PT9FoNGQxP/30U4czmdnDFxcXsoHpvDadoQz/0QdMSxD+rOsg+nw+zM/PY21tTThnIBDA+fk5Dg4OpF/xeNwR4WGbc53tzblgaXAdmMzvTvp+Op1GIBCQsQMjhqhRTDKJYDAo73Or60LGQ7uK0Smmg19nb9MuHgwGjvLwL1++xJMnT6RfOtABGNnBe3t7UkIDGPlxS6USzs7OpK3l5WXcu3cP33zzjawZx68ZJtFJ9jUSiWBlZUUuZuTaktwOmZtEM2msLIJNJLqR7ZlUKiUX8AGjwxAMBiWKQg9ALwr/X1xclBCuq6srtFotUT+3trZweHiIP/3pTwIwEJDRbXBDVKtVCS2Kx+OOu6X7/b5cFEH1iU50W5EYM05Qv08fNn53ZmYG29vbDqd2vV4XA5+HK51OjyF15twA46FrdNzrPpjFY3V/TRTu8PBQXDG8ZphrFo/HpV9kClQfdfu2ddSf8XuU8myL6jgrRHM9/vKXv+D4+Ng1eqPdbuPw8BDlchmbm5sARlFF0WgU5+fnUjcylUrhk08+wf7+vjjEmS2i+0l1XR9AugS0+8QGlkz63Y1uAZJbuqUPRFMDJDcROUE2m8Xs7KxwsVKphHQ6jWQy6ZAYNhg1FAphY2ND1I29vT25NggYqSiPHz/G8fGxVRW1EQ33Z8+eORJFI5GISAqqQEystJXH0/q++U7am9rHtbS0hI2NDUctSdoWtVpN1KBYLOao3GVWnSLRL0UuzCJEWpJoHx37bEqJUCgka0F1rVarOdwPvCctHo87bBdT++GcaJXatOO1VNL+LAI8XOvd3V2cnp6KBNLtm1K/Wq3KRZHACEhbWloS2/7s7AwfffQRPvroI3F093o9a0l6XTCqXq+La2masC1bIIg5bk1jAMk0h82mTlEn5kISbWu1WlhdXR2LFrFVTmK5BO0L05nb33//Pfb398ciG8wNpe0KbsaLiwvs7+8LKLC4uIhMJoPz83NRI23qoKkWme8h8bARHVxfX0c2m5UoFQByT4EOymW0hjbkJx02jQ5SveXvbuXg2C7/ZxSLvtSi1+sJI2JdzEwmI/4s2jg8XPxMMxq9Hnr+iVhy/amS+v1+AboODg4caTiabFgC53R/f19UdvaBKPP29rZkBxwfH1sZgT7MDJDWMZvmPtKf2Q6dTcW0opGa3KJJzA5zYrVzNZ/PyyIxzUQfLG4ME9XjRXiEdX0+H2ZnZ8U+442Zpm05iUnw806ng9PTUzm8Dx48kBte9EV+pmPYDMbVY9ZzQobD9tfW1hCNRjEYDATtZKaxjpwIBALWudZj4uY0a6qwtB9/N21Xc87ZFg+lRgJ1nUqv14uZmRksLCxgb28PwDXQBWDs/0k2DMehGWQikRCUlpJHR+6btqrZrh4Xo3EWFxdl7pvNJvb393Hv3j1Bo3l5iHmYtSSlwOClmIDTzTMNEGI+o/fK2GG7ydizbWpCu/yZRT6BUQmESCTi2MBUtbT6kUwmcf/+ffT7ffnu3NwcgsGgFD7V8ZA26TJpHMPhEJVKRWIS/+Zv/ga//OUvUSqVhEsymsANQrdtIv7MsCSCOfQp8XII4LpIj44dtL3D9m4eEI2A6quzTN8gn3FrfzgcigZh1hshM9SpOfQ/mr4q21y7AQqck/X1dczNzcHr9cpha7fbYwfNdvjM9zEihxIOGAEkb9++xdLSkhSBevHihWhbbJuMlfMWiUQQjUYd6m2z2bwRINHt2cwj0i1Acku39IFoomSbdEo16SpJwAiUYDuZTGZMjdCxhOQq6+vrWFlZwdHRkXD99fV1HB4eimTTUsGmU9tUP03dblcCgO/cuYPNzU18+eWXDkc3VT5zHmzuANNuZJEZfqfT6TiuyiWcTgnHvppza0o3Sk4N/XO8VIEJOripuFoK8Y4A7dvTfRkMnPX6gWvHt1nJyk0TMueP/ldg5MLJZDKOql83SQU3Gg5HwcmHh4eiVTDT4OzsTO4l39zcxOXl5ZharfsaDAaRTCal5DwwAmMYK3mT6mhTIXX7N9aNnCRCubg6RWQ4HKJer4uDkaqDOZk8EBzUnTt3MByOanPQId7r9fDkyRNZEPqLQqGQ47BRHdAOXtOeoGpEdPL58+fIZrP49NNPxd/05s0bFAoFR63CSeqkeSA0iqnRSYImy8vLSKfTDme7WQqC37X5y/g8cF0yjuFbZFy2g+p22Dj3nE8NfLCAqmkb2+bBbX6AaxsxlUrh/v37AEb1M2OxGN68eSMqvP6e256z2aXsL+tmApDbSi8vL4UZra6u4unTpwKG6fXVtmoikUAmkxFGw+pntsNz09jHQC5+aHJE2wSYL+PgY7GYROHTltAR5WYkAA+a3++XOhsLCwuoVCpySwkwCsXa39+X9+kLADW6xn7oLFxdakCPhZv17du3yOVyePTokWT9vnz5UkKEzFtSJk0sN6L+HufUjCXkz7oIrGYUZsVn9oEHmWvAiHmzHJ3phHVjFtpNQac6x8lydzryRGsLk7QfG5jEQju8fHFjYwPHx8c4Pz+X+bpp73FOONcmWNJsNsWB/eDBA8zPzzuyA1hSkIeNc2m2FYlEJIuE8/zq1aux0gnvQq4AyU2n1zx0Pp8PuVxO/EbFYhF+v18OGz30OpyKA4xGoxItEgwGUSgUMDc3J0HFr169ElVsmoHqAwg4r3tlSBHHVa1W8eTJE4d687d/+7cS5mUWBrWpkebvrBjG77G+CVXTvb09lEolB7PgQeJ7tIqs2zbBpUAgMMaV9dya/dSSXiOStnll/ZReryebVaOVJgO+CSCJRCLY3t52RAaZweNuapqbW8TmfiDYcnFxgfv372NmZkY+y2azWFxclPEwvI3MmuMKBAKOIk3AKNj55ORkKik/6fzcAiS3dEsfiBwX2APjqTST/AbASAVZWVmR2n6NRgORSETUykkQfTqdlu91Oh2JZGfUd6lUcnBgqnRuejF/9nq9jqgM4Pq6KQ1I5PN5PH78WNp/8OAB/vEf/xGNRkOcoVdXV1LazlSjzDExfQYYSfhEIiF1+4GRpG40GtaS51qN1Ok1fIZzr+sgahuR0tLNXtOSgPeb6arE7XZbJAhtuJOTE0dRo2nsNnNOGJBNew0AHj9+LFqLKQn0/jLXUf9NVyPjzzpx9969e9jZ2ZHqzc1mE4uLi1IoSqf2mNqBds3kcjmkUimcnZ25Zq7bxm7b744iraYuPkmP5jOxWAzZbFZ0e2bpUgy7qQcsIc5DWavVkM1m0e12xYnNBdZqoVuNPzO6wtZ3UwUmEPD9998DAB49eoSf/vSnGA6HAmo8e/ZMir6aNqA5J8Ph9WUbR0dHmJ+flyx1YKS6kqHogGjtnO52uxLwa4JAtHP5Lo1qUv202VA6+505XpFIRHx0BwcHCAaDYgoEAgFUKhW5+eVdyHx/IpHA/fv3sba2JnNzcHDgsIH0dzVDoXPZhlLqQ0dzgfN1dnaGg4MDPHr0SJDmcrmMdDotAfFXV1djTJPMXKvxLPNglk83BdE04Il/0sM3GYIez6gEWjweF0OXZQB0Dpd5mJlawZhHYLTJMpkM9vf3xXkNjIMKBFv0Bufkm+4Azel9Ph8CgYA1+oHOzm63i52dHdy9e1eYRyaTwbfffos3b944wrrcJpXo2sHBATY3N5HNZoXx8MKKUCgkY6LTW9cNoZQyD5veCPyeRvNsB02HoPF7Ho/HcdiOj48Rj8cFrGIU0PHx8dgVS25k/p1uhZ2dHfz85z+XvEZgxHTctAOz3JwJFJnf4b7S0qher+Pp06dYW1sTe/zp06fweDySU3d4eCiOdBOZ1JE6Gom86UDpPW6br1ub7ZZu6QORA/oH3B1zmvTppe2hK0/xknk+q20Ofm9hYQFLS0uC3vX7fQSDQbnLGXDq0Pydko1cLhwOI51OYzAYOK7KtanFWtW03fXFRFJdPvvRo0dSeZi2V6fTGYuZ1FIbgBQSWlpaEonBqs1U7diWvrua1aVMSNpUcZhRTDWPSZA2m0q/j3arTpqsVCpSxptjODk5cWgYNo7t5jLyeDwy5r/7u7/D559/jmKx6EA2bdKCa6RLGZj+Rjf3ky7IOxwOcXJygh9//FHcOsxE4b3h8Xjccc+DOU76QcvlMhqNhlWbsf0+6bz4bRM1ifTgufD67rJ6vS63egJw2Fj8XigUwvLyMnw+nxiqq6urkvahDVZOJuC8vJw21d27d7Gzs4NutyulzJiqoQEEbjrq3VQ7tAObk5zP50U9CwaD2NnZQbValY19cXFhBSL0/NXrdbx9+xb37t0TNwhVKR0Bz8vrtc/Ldtg4Fq1GVioVmXd977a5CUybje3ojUVVjL+z3J0mNxXJPIDpdBr/7//9PwCjw+b1enF8fCyOYtum5EFjOQbgGvbXbg9mfYvv6n/BJH3YPJ5R9M7z588lEHl9fR1v3rwR8yaTyUg1bRs4w3fqkg/meG2AmU3FJY2VsnPzF9iMQQ6wVCo57J5oNDrWaU0sAFOr1aT9XC4nUfi6T6bdxcNGFJOXKuZyOYn65sUauoYGJYNeOI1y6cnSJdDa7TZCoRDu3LkjwE21Wh0rgWZSv9/H+fk58vm82KZkEMybY/sa+IjFYlafHlE3LZF5KQefMZFH9kM725mNrgOKCdpwHPV6XQqWarJlk5sUiUTw2Wef4R/+4R8AjGy3H3/80cFESdrOptTWPki+h1rG9vY20uk0jo+P5RJNzfjNPVooFCRT/+uvv0YikRDmnkqlEAgE0Gq1xmxjPVbuN31vhMfjGZN0tjkx58dv4zJuE8nP+Twnpt1uC4f1eK7TbXQ7eiDhcFjqW3ADejwevHnzRtqx9UPXwWfxIIb9xONxqTfPCBITKtf5Ulwcqm+6j2YyZLvdRjweF/j64uICe3t7Y+inydWazaaDoZBx9Ho9xw2iZAzAteTRY+/3+3IHgc6Y4Gf8XSdz8vt8l676zPw1El0RGhF14+bmmvB3DYj86le/EpT5+fPnOD4+HqsRyrkwK3VpaUDJRib6y1/+EuFwWCpsA5B0LJOYaMtDef/+fcRiMTlskUhErg3TJgAZnwZpgsGgHEw9/klaoO0g3gIkt3RLH4gc5ceBmx1zmgKBgFxgyFNPqaXJbIcqy3A4FBWhUChgf3/fUdbblLrkdMFgUKRYMpmUz3XVX52nxD5oKFlHyJv901xYh0WxOM3Dhw9RKpUc4UYkmy1nqoz6M0pfzpmWKpRQjIPUdRAptTTwYasAxrWhvUQHto6h1CXx9O8mOKHnknPIOWLw+Ndff43l5WVHiQKuidYETHuc77LZcvSNRSIR5PN5ZDIZMSNOT0+tZSz4u3lVMgG9QCAgNxhRO7CBeQyyD4VCjiwIk9w0QT0eh1Pbdrj0xufk6EiDUCgki8rO6cNmHhb+r++nBq4vHdT9sP3v8Vw70oFroEMHHmudWn9XR2a4MRKtSgLXvj1dyuDevXuOGzjL5bLVNg0Gg4hGo7KY2q/DzzgH3OyMyNc2Va/XQ71ex2AwcKi9OkKGl3+wuCrXrNvtotFoyEah2qod9H6/3xGpkUgkhInZ7Cw9p+FwGFtbW/jFL34hc1Or1URd034rPedmu9qR79igKmui2WyiXC5jZ2dHVMtQKCT+T03crxQCb968cYyHl3a4fY/7MhwOI5lMOvzGtu/Yfjb32JhT260RPqM7EolEHPd6AZDoCBtH1MZwo9GAx+MRhO/g4EDacUO7uBhzc3PC7er1OkKhEK6urgSk0Xq42ZYtRcMkHlbg+ppaXXM+nU7jiy++kLafPXuGYrHoqLHi8Xik6I9Zwk1LXKKhOmuagAY3P6sVezzXt7BQIrKtq6srFAoFx71r/X4f9Xod1WrVcbMp29cZBppJ0p4x58TUBJLJJO7du4evvvpKQKDBYOCwU3UmgnnYzBxH86ANh0PHDTytVktuD2I153g8jlqtNha8zXY4xrOzMyk+C0BuQzX7QNJ7PJPJIJ1Oi5TWjNL2Tk2a4bvWIJnUEDfBzMwM5ufnkc/nHZxAV33SL+UCtFotlEolx80w+s7qSZ0PBAKiQgDX1al43S9wffWPlsLm4eckuPlZSNz82m3Q6/WwuLiIX/7ylwBGeWr7+/vI5/MisaPRKH7zm9/g448/xpMnTxztmxvKTHwlWqlD4BijyLk3SxRUq1WcnJwgkUjIQen1eqhUKiiXy46io2QeHE8oFEIkEnEUcs3lcgiHww6pQQnMjf7gwQN8+umnctWvnnub+m9qSba5MNeC+YscT7FYxMnJieyBXC4nIVmayIz0ntMXJrbbbUcmg36nA67/30tJdC1JzVT1+/T/NhfMLUByS7f0gchv6pg3gSLD4XXZutnZWczPzzvEONVIm8Tgu5rNJvL5vKNKro4qNw1p0mAwcFzsDozUg6OjI+zv74udoEEWN7JlNXP8pqPTVG+azSYCgYDE2c3NzeHzzz8XewsY2T0ff/yxA9RIJBICSZtj1EEA2i8GjGzCUqnkMOZ5HRXf12w2cXJygng8LoVvKNlKpZKjsjEvCuGYZmZmEIvFpJ/JZBKfffaZ3AnA9YtGo3JPODCqjcnrpvQVwToKxFxDPc/mZ3yP1j663a5IzWw2i0gkgnK5LDGPCwsLeP369Zi0MdtnqQf2xQSTTNJ+YkpJN+DOBBnNcfJvY2ikm61DtUz7VBgNrW0kM0qb9o+eYPqNzGxqs3OmquH1jtLWuZmAUYDp69ev5aYcAGOhYnpCbrJN+YyOYgiHw+Jv0/3nwgWDQaTTaczOzkrfeFnG3t6e4xZOzhcPjY6YAK7vJGPQMjDy611dXSEej4s66ff7cXV15ahJUiqVJMCWY6aDms95PKPUnE6nI+om73rj5isUCojFYvj6669F/WQtFX0JCFFS7a8094+tDqTetJPWot8f3d9NX1oikcD8/LyEmwGjCyYjkYiDedjIZOR6T5oM15a8a7Y1Cexx+64DjdQTYXuYG5HIWSQSEecqn2P0hXYKm/aRBiDMQZhGqnlwfT6fVK4FRsBKrVZzfNd2qGw2mzmJ2qlpXnSh7SpewEHiZYmlUkm+x8sZdTgY7VnG2nGMGhanvcY2gRG8zdQlluJjuJZ2TjPUTK8FD6952AaDgTieedkGn+HFkbyei98j6XfqW1d1+6bbxfzfhnKa5PV60el0pIZ/KBSSixX5fC6XQzwed+SnTWrTdKvon20Sl/u72Wy6plhpRm5iAtbD5sZtbB3Wvh4NKwPXUsUsR60Pg01luEnt48CbzSZ2d3dl05VKJamnoUOztGqm36Un23yOn2mVQcfiae4dDocdt9PwyiWiq71eTyIPdPAz38U5DAaDDslGgIRxosBIshHCp/+KwIfeAER5OTcMajbV1uFwFLnBoky8oEOr9JM2pS5mSmnB+aKktgEGei1INnWSfydUz4P07Nkz1Ot13LlzR56PxWJIp9OOsgX6HZOEiI3hms8R0a3VatYUH7Pfk9q7BUhu6ZY+ELmm2Ljp0+ZFBIwQ1/eSmeLY9rsbTfrbcDhErVbDq1evRIKwnIL5HP/XnNkscWfjqlrNso0dGHHThYUFgZ+pgtXrdUepNEbwM4A5HA4L5yecHQ6HHYmPHo9HQAGCE8wqbrfb4uuhiqqjHzhGfWGiSVTNecEG+68DE4DrIHOOORwOO+7A1vNrxj2aBZpMrk810wb12yQD14zpWIlEAnfv3pVnZmZmHJnUXFsdLGym62hV1ib19GdmEACfsdGk/evXnTLtKt2oVgW1r0LnVAFwRC+YHXcTv+Z79IBMdKper4uBr9u3qaQ6oNj0SzFdQyNndMbrRdJBvfoAttttUfMYlaEd38FgEPPz81haWpL+7O/vI5VKoV6vO/LX9GFjYHehUJB8Mn1/mI4EMQ8I+6nVaXNdGYUSi8VEDWYpO3OddGRLJpMR+49zTyextjk5nxqIsOWCmevuhubp/TMYDFCpVHB4eCgMjKlaboigjlrS77WRDV/g5zZ77l1MIMACkNzUAMsLANdoUavVclys4aYf2zit22DNgfJ9NgSTz+kIf25E7YhmvhQwbiuxDbPYDjeLGT7FSrnAdcqNjtFjHzKZjGzqtbU1rKysOK7B5Zzq0g+1Wg0XFxdjJQ9sB8lEW83x6P/5nN/vRyqVkjw7W50PzjvtM/7v8/nEttN94Dt0FD/bYb81s7IdNnMMNsnDujEsyNTr9RyalSYTi7DNkZawbqCdXh8bua2BuZdvbbZbuqUPRBPvZ7OhlD6fT6SYx+Nx3MzCv/Nv+n835HES7Grjfm7qLjk2ib4lM+CWtpLOH9MBzHTKm2oQ4Cz+qnPJ2u22cG62S58UEzOBUTb6vXv3cHBwIKo3JSmlZKvVQrFYRKVScYWazXnTc6R/dlPbWfVXF9LV39Poov7M1E6Gw6Fci2yq2NoG5ffNtTD7aEpit2BlXR6w2Wzi/PzcEcigJYy5dqYkNfe7aS5wX/Fqr2nJptKO1frXnbHp8fryCNbm0H4VHY9m0k36su0Z02Yz/24T/bSfzMU1qzXxqiT9btvFEWPqgBENryt+aUDB6/VKX/jZxsYG5ufnxd5rtVrirwRGm6fRaDjg92nmzTY3mrQdlkqlsLKyIn42Jo6aZRB6vZ4j1pPjtDE6fah4CPm7eRipYmt72WTS7Kv+TI9Vu1hsAexa5dZ91PNgrqO2/TUz48UxNEE0XmB+15xv/ZwDjbTZS2ZnaVwD13q83mS2e8fcjF+b5DQ7qknnoGnigTHvGzP7pSeXYVEEfdi+ydn0GPR7/X6/ZB50Oh1xsmtfHG0zfkbA4e7du+I7evPmjcMRrQsaua2F2S89n5psaxoMBjE7O4tMJiP9Ylk7Hjab3aTvJLBpJmaeoM2O0dKG49Nl102GSOCI/STj8niub/PhJY03gRfTSCW3OYxGo8jlcuKXZEkMt/k2+yGCahIaZKNoNCpRBbr+oUb0bIPVP+tNYJsEN+TKXEjgmpPqevk6FEert6YqQ2TVXBBzo5vj4DhZ1LTZbIqE18yGt6uwX3zX7OwsfvKTnwAYHc7nz59LGJZNHbTNzU2qotv3Q6EQstmsI1nUDTjQSa1aAmmEFnBqF2YwAb9jVn3mWujkV+4nPUYCW3yP1nT0u22gmrm2tnHayJTEwWAQqVRKhIzptpjUpkOa3vjmW7qlW/o/IVEjAXvoDIk2XDKZlNp7+m4xHROoyabmmNxJv8/tb2Yb+jM6NE39W4MmZrS9rjxsI5t01VxS2xu0G0KhkEO1JufW0pVxpJSKfr8f7XZbqkC5JSba+mWqa+Yzts90qW5KFfaJa0h7SqtrnU5H7HW2q9VKN21EmwtaQzFtOTfbTveBdriG4dlXk9y0pmnIpgqy8I9uexrp5jA9zA/cHuZhi0aj8lJe6sfOAOOGrj48Wv2gbWRTeWy2Ir9v85e4ZV/rw6TRVMBZym4ScdymeqTVHabuJ5NJ2RiXl5cSEU/bjhXF6FgGRmlKa2trePv2LYDrw+am/09DpuquN3Cn05FAaO0Q13NFlVyvXa/Xk4OmkUSCSvrQaDvFtk5U8fThInNqNBqyLsweN8vPm3tlGiDJNkc2O8/2GfeADUG96b26r35bXhcb0C/nJOsCrPoyPq3bu0mnSejNpM7b7EodmsODoMu8AeNZA+Ylijf1w61P3MBEpTKZDGKxGHq9nqSDMHBVB0gzwkQf2kAggFQq5bjVhu+w2SFuEkQ/MwlYYVgZo/o5X5rx2MLVmEZlMihKKS21zPV3Oww6Ggm4Bra0dGdWAXC9fiaTpnSzOc317zYQzgTEzPmjZNWZE3pM70JjRVonoTq8VYQvrVarctg04mYjvQB6U+iBmofK9r95WEw1FrDf3mmqMm4S1aYi6AwBfpfRM8AIdOj3+1LGm33g4Sc0rTeGnmdmB+g+3MSI3mWxzcNH5JE3vJrop5saSjVcMzOq41q1vKkfbgAZfVk6PE0X5jEBLrbFfWQCaZq4/2yf23y9ui3W3jSBIdvhNd+n6RYguaVb+kA0JtlIJocfDocSXUGfUqFQkMrDmuu76cP6Z5Oz2dQO8xINzUm1ymjWwbclLtoCUSepGtrONFVqfk7HarPZFDVDZz9wDMwEMOfINl9uUs2m1ptjuAlc0n03NQrN4TmXtvZMic+115rGpMBjki3qn6YKn6VKqdtmtJJNw3lXG9eUdnov8mcttc24z0m2m+3dfrc/mA14vV6pwMTNUywWx+7LnrRZJiVzmu8CMGYM0y6zLZQZLWJTLfRY3frI/ttUXt13j8cjTmCCRLYoCR2VQbvMbEvXLnEzts25cjsMtrHp/rsxHY/H4ygmq5FVc9zmWk9T8+UmtU6rgzpzREf4+Hy+sXli9JJGV21+Ut1fwImkm/Omn9N7jfNhqqlu62D2wT/pj5oY4+fz+cQG0ZcvmHDspIHaIiRsP5vcXKfg68lgfJ62G23S1UbmYTcPG8dm9m8wGEgBUDISnWUAXNdopAPZttEZ5X8T5P8um9kEWcw0ItMG5Rzz0JVfQAAAIABJREFUd86nDbGdJg9Nr5nNTnIbk9muvkSEfTevxjI1CT1uN0CEbdr2qY04Btq4wWDQervNTZLUrzuhVTGTfD6fFHthqBH9MxT/elC2CTbVQ71wbvlU5v+DwcCxMQlW6Of0BNnUU/MdboAMn7MdXB27yBtNzQUYDp03Yur2+BwvJTGTQG0b0dYPkwmYKjSZpI5nJUJqqmDsJwvodDodR9A5MM5IPR5nfUadnMu/m/Oq58DGWG0Hg7+zxs0k5NHtc1tfzJ9JZhiaz+eTCJJIJDKxFLkb3QIkt3RLH4jGoobd4EytRuq7vsiNTHXD5GK6PerYblxPczKduEdHrJlOAYwnrbpJBjd1h79TumtXgpvkMw1306aijWYDbEjtdhuNRsMV0tZkah1anfL5fEilUohGo7I+rFkZjUYlgZWXZrhFXQAjzm1mP5t2jO6DBkioaZj7yM1s0P+7pcGY82cm+JrrqveW2X/zfba+6j7oz5mSlM1mHTGvtudt5Fp+3FSfGLGuC4XqWyx1WJQN6dKTZguV0gayNnT1hQ/a4akjVXjYb7IB+Lz+2WbcamcrEUZTddHt68gG3T7VK9s7OUYzgJl1S4Dr0Df6n/Tc8N1UDxcWFrC+vo6ZmRmxJXWJQdbL9/l8ku1gOv/1JtcXQrrNH5+1zZ9mmG72s3lIzHnlM/q7uhw8iZEmGjQx+2pj6ua7bOPUGAED8JeWlnB6euooB2IeZtsBnljrX3c2FAohlUo57mLWnM6tSKfpCOTfbBzLlq5BdwMAQUGZimH20c3eMf9uPmMeEI16ae6lnau67zqXTSNpk7idnpdkMinFgxj/5/V65YD4/X65WJFBBP1+H/F4HBsbGwCAra0t5HI5xw2i7IMuDFSv16WgECUgD6ypjUzarPo5vcnMKHw9D5Pmg89NAlSGw+sCQ5rpmIeLzNGmbZljMjUvm5AZDocSGwqM6myGw+GxWpU3gTK3Ntst3dIHoqkDkaPRqNzZpQu+ABhD3GzZrzchRqbODYw4yPLysjxzcHCAQqEwFhRsg2Cn4cy2vCsGyGouz8BcMxdOS3YzbMkNVjZt3EQigTt37sh9Y3pOKXFarRZOT0+Rz+clHAwYqY7b29vyMy8wNLUJrdbR7i2Xy9L+3NycI+1/klS+CSXlfNnW2+ZnnWbvmbaibkdfr6X9mKb2Ye4HmjE2TMG0VT0ej8OujkQiMte6fzfZfmN+NlMFYYej0SjC4bBEjQNO/4cu123rgKk2mgtKFcHrvb5D+Re/+AV2dnZEffzmm2/w+PFjxyUKZpS5niDzYLmpkdz4WhVmXxkXp9+pbU+OnwfNttHNfunvJhIJJBIJK5TN/1utltRPIeTs9/sxPz8v6U70Qep3cG60mh8OhxEOh1GtVuXmVFYV1mQDlMx5NeNFOV7twyJj0e1oZmbGJbodZk2mikibmX1h5rmef5t/1uaPNcfI9zebTVHhTYzAPJj8zGRYjggSm4RgZ2OxGILBIMrlsryUHdGHbZJerhfEnEjaZ5ubm/j1r38NAFJElP6NR48e4ezsDIeHh2PpOrp9DXzcxDk1uANcOzt1HhcNcp2XZhZWdRu7ZjL6OXMubCAKP4tEIpidnUUkEpFDz/IUkxBPzRQ0gEXGpgEeE6kz27KNTx9q7VzWmQ58p8fjcTj8bUzZxiTN9xPV1EyLc8x9kkqlxuqZ8jvavqN0M/e/bd80Gg2x0WjTu4EumnRbfv2hTTXjIeJAtJHOhoLBoCy6+QL+bDqt+btuf2lpCV999ZUcsnq9jlevXknth+XlZWxtbY3VVNT91b/bJJ5+joeGnzFsiosKXIeMaYSSkswNTdVjBCBcdjAYSH6WyQH1gtlU0Egk4gA/zDmdxOSA64MXDoeRzWYRi8XkPfF43KpO2cg8CAQobM5u/bMZP+m2QW3t2/6mn/H7/QiHw3KV2E9+8hN0Oh38+c9/xv7+PoDruqG2PtlAPJP0PQ6xWMxVCrvNAXALkNzSLX0wGrtT2zydNKKTyaQUsNExgR7PKGaMz5m6N7mHKdnIkRhvls1msbS0hEAggDdv3gAAfv/736NYLMqlgwCwvr6O8/NzvHz5EoC9jIC2N0xOqdU2SjWzKpdpPxE80FHfpnpj42qdTgeXl5eifsTjcczPz4/ZMKYENl0gphTTfzPbmdQuv0e7TfdVv5ef2cZke99wOHSoiGacIm07BvKaJQR1H8yfzTG6PR8Oh8V9Qpt/dXUV//7v/w4AePnypSMoXINatjr+5vp2Oh2xl6PRqKPYFVVyt/GQHOXHbRuT6mM0GkW73UapVHKABT7f6OohnWlstmMidfpAarui2+3i8PBQDtvp6SkGg4HUvH/9+jU+/fRTfP7559LW3t7emEppG7C2L/WYTZ8NJ08m6H8jU0y1QY/TROT4Wa1WQ7FYlM95/7d+l/mzbT1usqX4u5vT3faZrb+2tiepdfoZPXdmX7jGZqC4bVPfRKZdx98JNAHXkTM+nw8///nPAYxU+cPDQ0cFNi0IzHHo/5mVz8PG+8a5l3Qpi0nz6dcLay6mljyhUAj1eh2VSsUxkQzQNEEP07bQhihBCB1U3Ol0pLoy8+VMO/L8/BwvXrzA3bt38dVXXwEYwdavXr1yMAFt8MtAjQKttnJq2jYjF6Zto58zqwBrqafnLxqNYnV11XG/AMdvAwjM75sHynSaa5DDDbXjmEzpNWlj2+wp07YEnKCMiSraMvA1MqgZrfl9/T09D3pvaTR3dnYW29vb0t4f/vAHVKtVbGxsiFY0Pz/vAE3YlhkOqMeg+97v9wWrGAxG101TO6CmZ9NwdBt+twcAZ6RzIBBAoVBw3Jrp8XgQj8fl+lqSjQPrd2i0T5fwbrfbjo3Oy/bYRrPZxJs3b9DpdKTu4pdffomVlRUcHh5K0ZzT01Mp5qlDnoDraratVksgY40yAtc3XAKjgjz1eh3FYtEB/dokj7nhmROm0/xtnNlkRCYkTejeREAnMQBzHWzrYdvgeq3MftqIQJG+btj0U7IdrR4TmOB4bBqG2R8ix6lUSlTGjY0NpFIpDAYDuSjy7du3cjutvjhR+xK16neTBsDfuf69Xs8hSa+urqyFiEyN5BYguaVb+kA0FhtpGt46W5fxdPpvq6urckcWMB4ESo5mckYdiAuMigeRc7OmosfjQbFYdHCMVquFo6MjsRE3NzcRj8extbUlnCefz8sliXo8ptpqFrBhlrCuEailiZZQ2hVgkwRazePYbXUqx7jf//ZZPxsIBATU0BeDUPXm2jDKxbQ9tTpuk1Y2Se2mbup1DAQCkiFAVapWqzn2iM1xzPHpz4PBoAAn5rt02b+trS1sb29LecB+v4/j42O8fftWnPTValUKMvECRa6flp7aP2jOg7l/WWYPGGkR+jLMYrEo97prMufOryffJK3SsZaGmTSZy+UQjUZdwQJuZrOWg6kn64O8ubkJALh37x6urq7kjmgiob1eT27l7Pf7WFxcxHA4lInViZi65LUuUa5L4ennfT6fI72m3W6j2WzKe9lnfdhsWb86G1rX1DSBATfbTAdbRyIRpFIpJJNJR0hSu912JDFSxddZE2ZW/E02nu1nvU5mfxmgrkGzcrnssJ/5Pd0v3rhqRiFpdXM4HCIYDGJlZQUA8LOf/QwbGxsYDofiPzs9PcXJyQlKpZLDJBkORwHenEPeI6gPm4k867HrMZJpckydTgfpdBpra2sARmGEjHIybXDdjiM20pzgcDgsNttwOJTOagcpjUQzYkD/TO6mr1NiTpI+DLzNk5O2srLiCEk6Pz/H+fm5Y9KIFJ2fn8sBbLfbssE0l7fdB6AnhjZqNpuVdApeTM82Sbrv/N2GwpqQPedEz7lmRJwvSjNg5HbJZrMIhUIOB7nf75fMANqe+mZQbhLdb1uajo1oR+o5MsfIMDbmyAEQxqQ1F7csCZ1Xx8I+OvqEz1DTWVpawnA4xLNnz+QyxGq1KlkNmmkmEgmsra0Jczo+Pkaz2RxjvjYgx8YANbNgTVDeApRMJnF6ejpmt+nvAkYEiTnZsVhM/GeMiRwOh/IZrz+yhQqRCMFqKam5NqWDPgTn5+cARtW76H8DRn6q5eVlDIfXpbKj0ShKpRL29vYcNRv1P7ZrjpOSjAxlfn4eW1tbWF9fl+89f/4czWZzLNjabJtt2dQ1/T4CIlrK67qR+uphfkafTrvddqBpOoeLP2tJyoOlD4m+7sgGYuh1tPVfMxgCXYFAQA59q9WSStl6XU3GyjnTfdVj1n2g9D4/P0c0GpWbXoHR4aaU4l6am5vD0tISYrGYFM29uLhwMEwmIZuIN/ui15F7mPPB9/OwxeNxCeGyAYKkW4Dklm7pA5HrzaM+nw/xeFzE8NXVlUg2cqNsNitpN/p7jhdYKjSRI5oS0VR7ms0mTk5OxGaLxWJIJpMSFA0AZ2dnOD09RbFYdEivfr/vqpMDIxV4ZmYGKysrkqays7MjHPrJkycAIHYgbxFl+1RfATgClbV6qCUeP6PaqH1vTNkArqP3NZzebrdxeXnpuFjR4/GgVqtJnyj9wuGww3FOd4NWLfk3k2w2m+n30m4KSs1UKoWdnR0A1w5fvodqpAkeEUrXcxoIBBz7wusdpXOdnZ3J+q+vryMQCMgYqXFEo1Fx18zNzaHZbOLt27c4OjqSOaQEBCB7wybRbePWz9VqNZRKJfFBmxqNSQ4/m+0h3knFg8UAZN0xbchrX5VWUbRDW6N+NnFrS8/Qm65UKqFUKo1NhC3NxgRgqBrQFvvkk0/wxRdfiCqgqVarYXd3F8AIdLBd8O7xXF/uTvDEXDgyIardWkXUaT26+hUrdekSECwAq/1XtnlkVINWd8311YxO+zp1W5opmAdQryPRvcvLSwG1tra2MDc3J6DGmzdvcHFxgVar5ahLqa9JJnHcWqUmIs2/D4dDZDIZbG1tSVsMhGd7JycnODw8dET9m+XnNJCn7WWTuG+i0ajMK68WpiDiuGxopAMg0Xk+Wn+lUc6Hr66upPoxuX86nUYwGHRA7LaYPZObmhtST6xNEpnGtek0tU2SthHZxuLiIr788ksAwP3798e+Qzo+PpZ4RhM21+1z8oPBoAA8ZtxoMBiULAbOlbZfuPk15M3cKR3LZyKetBk1k6N9oTePiX6GQiFx7pqIsWnDmRuR82DGbh4fH0s/Pv74Y6yvrwuo9dlnnwEYoc2c0/39fTx+/NgRPkUAQgNp5tzk83m0Wq2x+8ArlQrq9bpoIbVabaxysg4WYN81MMa11syZn83MzOCjjz4SO/H8/ByXl5eyruwHn9f/c2zArc12S7f0wciBRmquksvlMDs7K5ynUqkIt6DKQ51axx2yWKn2SVA66HwwIk+6yqwJnZrqoVZjTJVHq0+0kyKRiJRwW1lZwWeffSZ9n0S6D/pubu1G0LYrJb0ub8Z+sZwEx03HrU5O5VVSwIjL8gJ7EtVrrZ6zDXLgRqOBTqfjqEamI9t1WwAcqB/XbdINNDZthGvQ7/clVCoQCCCRSIhkI8ViMUF9l5eXsbS0hD/84Q94/fo1AAjiqMuea62Lfbi6ukK9XncENZv3p2unOefHHJ+ZOAo47y7QUj8QCGB1dVWc5qVSCVdXV46sebNSs23u/KbqQD00m80iGo3KJF5dXYlzmlELdObRsAVGsCgnBBjZA9z43OjxeBzxeByJREIOgzk5ejFN0MHj8QigkEgkEIvFEI/HHXGcvHR8dXVVPnMjjrHb7UokA+dBO141mZEntDfMbO5oNCoxdMDIvmPANXB9mLUayYOmVXMuJv+myyDwGR5kfbg49xwP50/biTzsGpo31XOtjuo9ww1G9Tmfz+Ps7GzssJm0sbGBjY0NfPPNNwCA77//Hvl83sGU+Q4dgMB9qtVws79a3dd2qekLNu16fq7boj0bDofFDt3d3XXs8Xg8Lk76SQzLkc+mjflUKgWPxyN6drPZlMml4fn69WscHh5iOByKfUEfixkRHwqFRIolk0nMzMxgZmZGnuPGnITmACNUcGlpSUq4zc3NIRKJODa1iX5OosvLS0Gs6vW6SBDOQzqdFsep6UPT5eH4Xn1AKL118HC73Ua1Wh2bHxM80qFZZFTmjTjajuIa6QgfFsPRTIw/E5gBRpxZAxZkADZ71bTtuD7aB3V+fo579+5NtRa0obe2tvDDDz/g9PRUJAYPCPugw+s0GmlKQPbT6/U6Nr9ZroF91383gTuPxyPzov3EOlQulUohkUigWCw6MgD0HAGWgj96gTudjhidVAv7/b40SAROe+I1Csk2yX10TX7Wk9exfYR0zQVmm4FAADs7O/jFL34hMO9fQ+12G7u7u3LYGGFgOt2JEJogkCYz7pEAjdfrlTEyYkKrkXwXFzIYDEoBHh2TyQgJfUEGywEAI+c+I2R0vClrxpAZcmNqRJTBC3ym1WrJuupNY4I0epNz7J1OB2dnZ/jLX/4CALh7964w2UmUy+Xw61//GoVCQdS1QqGAcrksMYnNZhONRsOhZlN9JJii+6qBKDIvHd+oHdtcMx2Ewbb4HmpO6XQap6enDiabyWSQz+dlDk03B3ALkNzSLX0wGgtE1rBruVwWyWY6jPVnNjJtL60Hh0IhsbP0vc6mdDRha8bJ3WQPTEv7+/s4OjqSZFWOy7w72RZnSTuK4zE5oc5O10mHoVAIoVDIAZ+HQiGJYp+dnUU4HEa32xUVvlgsolKpOPxE2pkLADMzM0gmk0in06KdtNttHB0d4ezszFHrk5nM5NQEmDTwRU3EhLJNtdAE1vx+P2q1Gp4+fQpgZA/v7Ozg7t278h0zVlKTjksFRtKZZgudyWdnZ467y013E+0uUxJrdZpuGn1dF9dChylqDYDuhoWFBezu7ooGEY1GsbCwgEqlInvJFjzguHnU6/WKWjIcjqLoKXbNilD833Tc6UXQgwwEAoLKra6uYnFxEYlEYqzEmkaVqL7p99VqNZyfn4szmhvmXen09BT7+/sO+0n32dxkOmLE4/EIswBGKjcZika/aGNoI52LyedCoRBWVlYkXQMY2ZHn5+fC6JgRYTq1vV6vLG6pVJKsZVaZymQyiEaj8Hq9oiozM0CDK7TzNJqr4xf5mRmcYMYPauK+4YYul8ty4DRgdBPpJE2uw8HBgQMjMC9j1H0lMaWK3+t0Ori6usLFxYUcZiYv64tIMpmMCAWaT2R6ZM6BQABLS0soFovCBGylEqRu5HA4lFqEHFStVpNJTCaT6Ha7jlQTLQEmER3h9PrfvXtXbBINZdPuMS+U4ATRdtH9fFdiW+VyWfKebIdM991EyGig88AHg8GxcCCGVmmboN/vCyyuqxEvLCwIKLC3t4fLy0tJZ+K4zX5x0+vDzYNNW2J5eRlra2u4c+eOtM8NFQ6HZbOw2q+Otqfk1IeNDMe0N/XcmDY7MEKyj46OhAmYBWHfhbxeLzY2NgRBPjs7Q61Wm8goOYfm37rdLqrVKi4uLgBcZxAAEKGTSqVEW+C8vn37Vtab4/P7/cLcAEiftDDya1UtGo0Kt6bxSCCC1/tWKhWJriegoI1AW1gTq/cyfm5xcXEMdjX9WMD1JRP8PBQKYW5u7p3AEXLYq6srRKNRCf0pFouut31qlVFvHt3ncDgs6ixRQMCZFEtUVrcRCoWQTqelrXg8jsvLS0kZyefzjltxdH9MLUJHeNDX2Ww2ZVNwnba2tgS2ptpkIqAatOGamWOmy8IEJ8x5su0HrRlRjf1rSDM6853st02NFJ+XAsEosTSSzrkrFAoiBDjuVquFweA6EblQKKDZbCIajcphs2l7twDJLd3SByKx2Xy+0WV6lGz0z9ApnEgkUK/XxZ4ARtKBOrOWSuappkSi4RsIBITj64gGcnNtQ3m9XqmQ9PDhQzx69AgABDw4ODjAYDDA1taWI1aN9MMPPwAY5TPlcjkHFzNLOJh6vyYmdHKMdGRyHnTEDOBMwddEXybbPz4+xu7ursDdZp/4bu3Q159rcMCMTmEeXiaTERWOdSzj8bh81wwwZ7s6up7JrNpWsWkzNj8Vk5D5vaurK3g8HofN/q6k7UUTbDGji8zvAKM9qdcQcN6zZ2pZtr3B8RQKBRwfH49dyGm+U2w2VpTihj05OUG73RZxPT8/j16vh3Q67UCt8vm8deNqCoVCjpR+c0L0/3qgfr8fS0tLEjS8sLCAk5MTvHjxAo8fPwYAPHv2DCsrK/jnf/5nPHz4EMC187HT6YhxXalUsLe3J6KfNqOJxrIvZn/0olIdNLORtY+L/TDH4/GM0l2ozu7t7cnPgDMo1rRDzAXXjIkHUfs8B4MBCoUCDg8PZQ5XV1cRjUYRi8VE3SQD0mAV0VR9J1k8Hkc2mxVmy++ba679VNzU+kbUYrGIo6MjNBoNqZLGbOxpiQnF2WwW1WrVatO69Y1jZMqWDlg3bWHdjtkW/1YqlfDq1Suk02mHL9nEA/xcpJmZGVkI4Bpy5UuZz6Wvymm326jX62OcURMhchs8rjcLN7OGhZeWlrC5uSlo0e9//3tBSCkJ8vk84vE4jo+PhTEsLy8jHA6j1WoJZ67X63jy5Ilsnk8++QSJRELKHtgmkf3XdiX7qjk8N7kuWENHtUYoWUn38vISe3t7AEYSWkt4YLzCrrY79Gf6AJoShdTpdHB0dCR2Luv8EyXkGP1+/9ha8OYcjj0SiSCZTApDvri4EFBB20s645oxkRrN45wwTw8YAUVu7gAbca0fPHiAarWKQqEwhoDr+bEx1HA4LEwEuI4MsbVjfqaZNMt5aIbMaBXdh1ub7ZZu6QORnyoDIU5yt2q1ilqt5ijtTSieXCWTyYifwnQDyGn2Osuy8W8m9+bnVB2B0RVRp6en+I//+A8AI99YLpeT5D1gxLEajQaeP3/uCE7udrvY39/Hd999BwD47rvv8Pz5c+n74uIistksMpmMqHEmesg+aUQNcDqGgeuMBbMsGkO9KB0SiQSazSb29/cdJdbYJv83+2DOKQCB5U0U0JSC3W4X+XweL168AADcuXMHiURCkF72X6NrHKsuatpsNnF5eemopEYfnhkEoPPseGsPa5Ow7ZmZGakTAozUfPq2NHEfAv9fe9fWnNh1dBtdEBeBEEhiNOOxJk5cZafit6SSymN+cf5AqvwD4qrEfontzIykkQSSQFwFCCH4HvBq1m71PjBfXPNEV01pOBzO2ffuXn1b2LdQ+FFkLhbX63Xp9XoqoQDZtmI367xYl0gyLLJwVl+mWngcGA7m+M5G54v8orPBVzGdTgcBeBATRcLSSVxYL5vNyvb2dpCwJ7At/AIh88KwcjEPyN7envzxj38Ukbmo8I9//EN+/vlnEZnrjfv7+4FBFiJlqVTSTXNxcSGZTEYuLy/Vk+E///mP9Pt9FZNbrZb0+33Z39/Xgen1ehoeZD3NLZzNyjAOE24X+r29va0i3HQ61Y3GC8H6llqYn8cvSYfAdTum4/FYja3j8Vh+85vfSC6XU3sXYG7+LeyEDJBsb29Lr9fT+wCapFILn9qNjQ1dO3jfeDx+pr9sbGxIqVTSa4PBQNcTj8vbt29V1ITBeTKZKGi2vb0tJycncnt7q330bG4WkAOl0+kgxT5MBuij3aD4y+AU/s8O0js7O6peqc4OOROnGE4fnPLWNYsnBA1hz3absWh7ezvIcY+/nlPr5uamfPbZZ6oTfPfdd/LTTz/pybO3tyez2TxNGexGzWZTc1MA7azX67KxsSGdTkf1hKenpyBPxe7urjw+PkoqldJr2WxW45RsdVNG+XK5nJTL5cCYC+6A8YIdB25UIiI//vijcmTrvcHjgPZ65G0wngvrOYEDAP25uLiQ8XgsX3/9tSLN8NTHQTsYDNTgD4CJN7zNjJZOp9XdLJfLyfX1dRCaNZvNNDIDfUAEAxZnNptVOx423IcPHzQFHeZsY2NDrq+vde2Ac3755Zd64N/e3j5LVedxKlznTZOEJvKatlETjE2IzHXVXq8XcH1FIx8eHqTb7SoYAQ9zRqhwr4XmGSK2IhdyS7K4wZVh2PRQrVbl9evXCh7885//lEKhoEjVzs6O3N3dBQbpSqWiiYmwkH/++WcZDAbS7/c1OHEwGEixWNTFUywWtT24dn9/H3jIoD82xVqlUpH9/f1gYwEEwKKGaH58fKyco1araf4P/NbGrjGX9BZKzDyRBL/z6TqZTOTm5kZyuZwmGf3888+DgibIPZlOp4OwEg8Wh4GfD0QRUW7E7lS8cQeDgaRSKXUMAJgEr34RUYAOmxRclEtNA6CpVqtqFvrXv/4lt7e3wYEeQ79Rxhn98cYQKgHGIpvNajwmtwt+r5jHdrsdJNFdAyRrWtMnoi1wKtRe40Q3HMruhdZD3t3d3dXTjsP7RURtOmzLYM7BpoWXL19Kt9uVb7/9VkTmBusvvvgi4JqdTkdOT0/1+Z999pns7e3JYDDQ9HPff/+9nljNZlNERA2y6B+isovFoirb3W5XoXgLZXPW33w+H7gfIfMSnI9B0CtQXQf2IAsv8zgk6WKezmbtSZ5yz3oHRB4Omj06OgqiBfCXA1ghYlkxEvMA3T6dTkulUpGTkxMRmZs2ms1mkKk5lUppOnBwLQtgiMylj4ODg8Saaoi7LJfLGlAMt0IL3LCYCFEWwIZIGKHOZh1wNY5nOzw8VK6czWZlOp2XcAa329vbk3q9Lvf39wudDY2AKAnF1togsLhYGcZgwCgustD1MBi7u7tycHAQeG5zp9B5sOUff/xRN02v15N8Pq+DPRgM5IcffpBer6ceEYVCQY6PjwORATbBXq+n7y0UCkF/SqWSnJycyOHhYaDwW3QNKB0GHZMJX0uMFYcmYXFubW3J+fm5fPjwQfsNPSKme2HRxYy0/NmKlJ5NCG3h4NRUap5qAPnyP//8c8lms7p4UqmU+k/ynKFPbBh+fHyURqOh+l6hUJCTkxPV4V6+fPmzvFYqAAAgAElEQVRsrtHOTqej6wY2yOFw+KyoCQd87u3tyfb2topn3W5XAROIsN98842cnp7Khw8fAqDDAieTyUQGg0EQXY01znoc8qqgTy9evAjeB79hPjyw5vnw01z/2M1oXKlUUgMoXoqGYDCAZnG6NkDKeE4+n5fDw8MAZZpOF4U2OAlQsVgMgI5arSY3Nzf622azKTc3N0FincPDQ0mn0zIYDLStf/7znyWbzcr9/X3g8MvOw+VyWWazWQAZQ0+1YT2A0PGswWAg7XY7QCyn02kQcT2bzeTm5kbevXunpz7I4z5MSRvNomRYFEmxhdA7RRbwNnQ3kXluxzdv3gQp97g4JdqAOQOHQpIh5OkQETUug7NlMhnJ5XKBXo81wunUO52ObG9vS6vVCkAGjn5Aag2uAgqvnXa7LdVqVUTm67JUKsnFxUUwj7wuReZIKZyKRRab20o2KGwCSQUxlexJ1W63NT06+o0ioXi+bjYMJB5wcHAg1Wo18B1DozHBOzs7sr+/r9mF0QHOapvJZGR3d1dPS14w3HHYU77++mvNX/Hdd99pcliR+elaLBZlMBjoAgbc32w2NVHo7373Oz11MHEQ8bDoHh4e5Pb2Vlqtlp5szPL5L3s8gKbTaWCDhBjBtRHq9bpmMsZkLtto/E7vM4uNsed4IAojwRgP9Ofy8jLwU8ShygjsxsaGzi3HqlnQ5OHhQWq1mi66TqcjtVpNq92gTVtbW1IqlfSAHI1G0mg0ZDAY6KKGxxIjlhCD2dOpWCwGyXZhtsAG4zFE/xG9wLFwfCAwcJfNZgOVCgmUcO/T05O0Wi25urpSSWp/f/8ZOrwGSNa0pk9EytkgAkEuhdLMthF7OuI6bB0iC2WRFfLNzc0gWzDABlZ0AdOjDpnIIkqXU6wdHx8HpXNRGujLL79UPa5SqchkMgliu2y2XZzGFoa3BQVB7GGBREXsUTKbzavKcIxUp9MJ7Gie1wzG0H5elQOyuMPXbds5YZOIBHbEVqsltVotKA+G2m9s7wOn44hltJf1OE6nAW+OwWAQ1DcAp+TilJBiYCqBLYvttI1GI3ACv729lc3NTTk+PlYT0eXlpdZ+YPOJHWeoMwzpw/tF9axfwDGbj5OBrNFopCXLMA/lcvlZgcQtDIgNOYCeZUPleTJhm4PXO5MVFdk2UigU5OjoKIgCACt+fHyUv/71ryIiWhwBgZX1el2q1apUq1UVG168eCFv3ryRr776StvaaDQ0oNMqvxz4yKACBt+L3MZGY4SKZX1sWg4XAfrmORFbsjpZzLDqbdIY0MLE4ACcDljfGw6HcnNzE0S/Q59hcRohKFyBVSRMAYe+Y8O8fv1afv/738vNzU2Q5mFraytIeYg8lqnUIjK/1WoF4uHd3Z00m01FuEXmBySrGiKidQX4ELBtx8HISXQhUvJBhNws8LDCNQaPoMP3+3015gPlfLbZoHuVy+XAKM3cDC43eJDIPOc50nd57kYgTC46CkO0zU48mUwknU5r0fEXL17I3//+d/npp59EZOGfV6lUFObd3d19ln4OC8VyFY+4j/zZbkCb5NMz7jNQwB7fVg9Mev8ybmbJA08YRLGGcfZVxX1PT0/S6XR0wYLbs6+k503E6J01LcDEcnR0JK9fv5aNjUW+lNFoFBTSFJnPGfQjSCOomoSFfXd3p5sYGMGrV68knU6rQVtkkViXDxS8l+cQ6TUAmsEdjFMeoJQxEguLLNy6mJFgo2Jv4KB6ttlQzC6TyQSVP7CARBY1m+/v77WEz9XVlbr1cCfsJMMUwND54eFhkB4Aiw6DKTLngH/729/0pPv222+l0WjI7u5ukNL76upKcrmcOjCjPV5qAW4jiK/b33HiHubsdpGv4jzM4iG3y8tYZYk5MV/zOJttGy8M5pLcR84tydzAHih8OOAaj43IfE4wj//973810RE8Vh4fHyWXy8nm5iK7NtoyGo2CtBtc/RZJo/b29hSxPjw8lBcvXgR2XKTr4DmZzeZZm7EZROabZmNjQ7lnJpPR7NC82dLpdNAO1BHnMYZqlBQHtwZI1rSmT0RbIgvF9+npST0uoCSDs3W7Xel2u1Kv1zVwk9N1W7GRyft8fX0tL1++DKDW8XgsZ2dnKkaiFgBsNl988YVUKhX5wx/+oI7Iw+FQ6vW6dLvdIN8gTmHr08mnuRUxcQ9zZg558cwCTB7QwcReGHzy2Wd5HCzG7Twzin2f/Y3HmVksBpjEejr/1rbNhhbx2LZaLXl4eJBCofDMf5YBJRSvZ5skTEYMOsDeiednMpmAq4nMJS4W6dGn+/t7tc8h63M+n1cQMJfLacoKTqcI+xvnxmRJCWoYe6Mg7CoQI2ezWZCiDnJ1o9FQEVFkvtngBOylWObBXkawqXS73cBoPplM5OLiQv7973+LyNwT4Pvvv9fiCz///LNkMpkgxcL9/b1mj8IADYdD2draCjJBsWgpEiKDVp9jRXrVPrKexJ+t+Go3Gb7nz7Y90D+WiZCsQ9nrXnuXbXDbL0ZwRRYiqdV5reiMrFWsP0E/w0JH4c2trS1FxKfTaaDWFItFrb3G4BpsePCIuby8DDKFicxF11arpcwEGARqToiIuhVy2A3qnSdFke/s7Ei1Wg3E59lspoi1IptAX5rNppTLZZVpb25ugnx8/X4/yB7L5E1SEk0mE83pjoHFaTEcDuXdu3ciMp8AhppRuKBWq+kp02q15KuvvpKXL18qxxVZ+O0x+sh/Y8gjTmov1s72l7mSp7fFON0qHJE3HYMQVl+ybfeuLTsAY1zT9pX1NpHwEGBjsUgYxQBuZ/VkgCIiolEGlUpFD/Pr62sZDAa6sUajkbTb7SA1x3A4lHa7LdlsVqvFwr+V+424R+ANiEZoNBp64AO0QwiViKhbFnNP626XTqfl8PBQg4NF5gd2o9FQLx2Rtc62pjV9MtqC7Qke/+AEqBgC4uhlj5LgbRCfBv1+X25vbxWh2tnZ0RMQsVD1el2Oj4/lT3/6kz77/fv3gY9jOp2Wo6OjQHbf2dlRHZQdgzm9HDiYRSjBnZLEOttn/j9O9BgXW8ZpvMhgcBR2kvZQLxsHh+ueMdeSpyN6SKo1Zdh+ItDWil3WEVlkUThTZM61CoWC7O3tqdkAY8Hv29rakkKhoPo5MgVcXl5KrVYTkUVALqsInU5H0/iJLBzmh8Oh2v8Q/IlscCJzyenNmzdycHCg68szdyCDGI/Xzs6OvH37dnEfDzCHfrDXgZ0gT7n2JoCJFV2Irre3t+rbiM6xUbFWq8mLFy/kL3/5i4jMPch/+OEHOTk50dz48BKfTCZBZyH/sy8k8tyLLGBt23a70GKggMhzGD0Gw68ixsV0OB4/u3EYmIA4ZsEK+3wWde2m9kRUD8jxrtnvGYiym4w9bxiIAmCB38LThA3fxWJRyuWyHtKZTEaazWaQEpB1Vwb4er2eiqico5SrwMIQzZmz+/2+fPnll6ryAPpnjxJO1Y4+AvRRnQ3ICzgLy9p8I5+49sTjSbHknawi88Xe6XRUYUVKcj7JMIiQ2ff39+Wbb74JoqwxOPl8Xt8DoyOiATDYkNMx2JY7eO1N6teyMbCAhafPLdPfcA82iecyZ59j9TYLhnjP579J/fGu8W88TsfSBT/HblzEg3GqvGazGaQjyOfzUqlUgvwpFxcXcnFxEaTKA+HgRl4Uj2lwm7EJsU4QdjYcDrVWRbVaDUA6zDE7biNqn212Gs+GBcpIk8fBbGc8cYOJN7CdVCi8IouELyy2jUYjOT8/V6WzVCpJtVqVQqGgv2OfRy6KgD6Bsw2HQ9cLwraV28fXbf89AMP7bex5se9jUgFvOO8+j/NZqSNGsXn12sHf2cOE28H3eOKgSChagjuwZ8mbN2+Cksv7+/sym83UI0VkLv2cnp5Kq9V6Zq6ZTqdqSoCZyrZz2ZhMp1NVr7AOe72evHr1SkXZTCajzAPvy+fzWuZL+xh925rWtKZflbZSqUV+Q/wVWT32SsQ/BW2aL4AffD/chEQWlUHsiTMYDBSuReE7LneEWlpIuCMiytHYQRU2N8+GtUp/ROI2RNbZkri8vT9GloN4z/SAHI9jxriRff4y4IPf7XFV+04ryrIawuIwl5W2/pKIpMc1fiYkm8vLS41JZPBoNpsFBSUR0c19tqoSt8uO42AwCMpBg7uJzDnuZDKRq6srXW8HBwdye3sbOHMrQGJTcVkx0htkbkzsPh54TtMG+ZgdN+FDyTI+gBsRUa/qx8dHDdJDGBAbJzHQg8FAO8/6Grc7dqDExDn8zgMFYvd65NnQ+P7Y+1cBbuz4s97EGyu2efh3SWCIJ6bimrWzee/b3NxUG1esyIb1Dnl8fJRaraY2tffv36uh2x7mg8FAkW1bDwBMwOrBMfViOp3qWsUmggNIqVTSyHc412cymWdrbguDgBAboDWx6iLLuJ2nO2AT2YXBmw0N45zz0McYyEClUC4GwRHUaEM6nQ5CbKCoMvJm28ULK2nRe+TppauCLd7BxuS1K0ZJ+qD3PPy1+ox9n+WC/Cxv0/OBCX2MpSbk9WAnYCCDvPbOz88Vmh8OhzIajaTVagWbCBKLBbyGw6FuCBzYjIh7oUt2jL35QxoGrK1Go6FrmSvIWicHzYiMUAM0yttssZPMo6QJ4QXPaOF4PNbgU5EwMRCeg/wVAEOQu+Tw8PBZm4OO/hL6YcWu2OJdpY/2/mVACV+3C9obL+/53KaYyGrbbscw1tYkMTSJC3r9s21gFQWByly7mqF0ppubG810jKS7XMAEoiFvcBweyB0qIrohvQMm1mZ7jenp6SlIDzGbzZ6pYVbUXwMka1rTJyLNiAyonD2zrXjhye+rACj295ZTiUhgcGQQwHpOw5aBdiH9eKlUCli4iASiCxxKWeSE+JZ0sq0qRib1115bRbz0OFnSs/mzFTs98IS5OsRp+zyc1jECx7RrhN/HnJXTlSN1HbeB4+5EFjkn4fOKOoBe323sIiK4OQ0e3gHy7KzeeOKZse+hK6L2gcjCI4p/u4WXWi9pz+1oFZ3Bk/HxDn4mnoX3cp03BlKsRwREQfyu0+nIzc2NFItFzUHBqc858SjnSrHKtB3QVcWl2P12s4A83TXps30mj693rxX9oMvY2njcB+9gRVuT+rSK+InvWUxExjUkzsVvrO56fX0dRJBbvQu/Qx/5nUjZgd/a770DFp9j4jMfDN5aAVYgsshByvfpZkMUa1JoCRqyqkLJv4tdxwQPh0M3fMJuNhQAYeN0r9eTRqOhJyDXBgDalcvlJJPJBF7ZDAVzX1blZkn9TuIq/NvYZvPG1YIA3iKPcURPqmCy3Ilj77z7bVtt33kBIh6MfVfh02j7A/BBZL7ZOLLaGz+OrOdNiLwgHAnuRUQwiBEbU0vMQPgzzFLooz2stsAlut2uxrCJhIlhuHFJ4ovtCH/PG4s5HL4fDod6inFAKf+OEUR+73A4lGazqXaQcrmsXIyLZiBrrYhoTpHYJuHFuWwSuB9JcU8eJYEUSdf4lMU9sU3q/Y7bauc2dkDE2s7kOSDb9O3YbIwkI1Pz3d2dOhTf3NxoNmp+H3Nhln7wPQJF4cHhEffZk1K8de5xOabNzU3tI7Jk8xitAZI1rekT0ZbI/CTodrtBdmDrzwbineo5J3sczTsBrZ6ARC+j0UizGOH3tsiBFW0heiCnfqlU0hzz4Gyw+gMK5tyTMYdkJk98ThIPvc8e54nZ2OzzkwyuMUoSiS239E7uVTmc/S2n9YP4iHRwIqKpCDhv6M7OjgwGA7m5uVEJBfXNPCkCa8JiDSJzqaXT6QR5L21fPI4WG5/Y/fYe7o/I8zlTNHI4HKqzru2YJStuJImXmAgrktqFh8xd7N6C+C0WlaztDYsViTJFRPU0VCrFfZy2/OHhQaPAvYMhpjjjWVafsZsmNpFJoiEottG859trPNl2vGO/jemNtk227TGxEzqaiGhmKo4RKxaLz9wDMX9XV1eaCgFotPUosg7lOITRhuFwKHd3d0EuSe+gs+OXRHa+lx1i3EaQbja4NsU8R5IU5aRO8CLlTWPzUj4+PmpSIQAcMESzzgZPEA5vwGKEvnl1daUlY7mET7VaVc7GuQG5Oqnt4zJul/Q5xhl4Q+CdVo+1CYmwyOwmtG2z0gYOpmXhLauCQh7ZaBHoaCKLkmHFYjHI9YG+Q6e6vLyUs7OzZ9zIC/C1Pq72sOv1ekEgNI8P/2aVjbbqZkTfWW8EY1AAZeUnrWlNa/qfSDmbrfISEw9xP+4BLUPVLPezrBixR3d3d2qI3Nvbe+a7iDphXkQy297q9bpkMpmgrG+pVNLTFeIjt4kLrVsUNonQLgt5W2JxGs+09i9wMMu1VtXXWMSGOMenvpfaIkkf9VQGbgv7PoosDLvgXhh3W+sPLneI6Dg7O1PTDcbEGwusU5ZCsEbAydrttvrQxtJUJKk+MfUpRlaSEFlEmcBUJUKFNTBwHOq9ysPtpvEWW1LD2U/y4eFBGo2GyuzFYvFZhiwsPK5dbXOvPzw8SLPZ1HRpIiJff/21pNPpYLNZ88bGxoY+lyclFhUd0+9wDYuA77NKNDaCDQ+xOqCnE3q+nmw8RmGKjY2NQKTyFrEnLscOGtt+1r2QqhvjvL+/L3t7e0EWYaSHbzabCmqhTjqLpFbvgWjG13nNQh3odDqaAoMPMy86P6YmJM1t7HfssYT54muqoEHOxuJMcuqNKd4xWpXbIaUePLpRH449StjWJhJW+mR5eTAYyPX1dVBdp1qtav/K5bJWLGEH2cFgIJubm4Fx36ZhsxMWA4qgP3FZXORFYR2KuQ1vUAYBvLR7vOj50OG4Pq7iiT5CV+Kcmvw89MPqclb/w/PYeQAVXrHZsNGm06kCFrCB1Wo1TYsBHZoPARw86HfMEQHtAfjVbrdlPB4/k4qsAdtSEh7hMRV7/8bGho49OBrcIEV+MWqnUinJZDJBpVHOzZfUKA8U4OtJKJAV1yBKQpzo9/uSyWSeJYixg40Tj08xFO1DVRH44bGSjixQ1hud6z+jjBSLLmiL5QBeP3nBQsRivzk8y6Jrs9lMNwMM8FZ05oW2vb2tG5knHJsLhOS1OER4zuwcWtSXuSeejwMaoTKVSkWKxaImX9re3ta5AIDV6/Xk7u5Oqw2h3xa4wf/RTj5w0AZwwslkoqE47Xb7mcMCnmXF82UiI77zJAvLdHi8cH06nephuwZI1rSmT0Rb2PHQZ+BuYiNk/xeyrDtJ/Hx4eNAsstfX12qTEfFLIIErjMfjIJYI3wPqPz8/1+9FFgXTOUJ4Z2dHfUQB0iCzEuxyIotaX9wWT6QAN2DwABl32QMegIHIgouxXgqRj0UoG5AJ1yBO38c6Eo8X2mI5NT/bcjGYalgSgH4GaF9k7lDAqQ3gYM558NvttqaIY3EdY8ZipE0Fz/UCua2DwUBFUoiTy3CDjwFBLCfzyDNqP4vUtiIfyLLYpJd9rJ3GQ9dwHY6oV1dXUq1WNV8f61Ig1qnQLugu3KZutyu1Wk0XSqVSkVwuFyTXRCJaOEWLzJXufr8v9/f36seHouk24Su3AQvT2pxQ7gqHGYq7YzwgwqKgH9qFoFkWSa1Cjs3GE249LKw+hHHlgwyggxVToQ9iM+XzeSkUCkEQKDz5cVjBa4dF83a7Ld1uN7B1MjDC3iF8qKF/rOdCjWi326rrPzw86CEBUdyqHx9LMVWIx/bp6SnIS2nVD9XZ8KV1AuaX8QtWpSSUK8YNMEDX19fK3UQWBcZ5AqDjWHMAnod3IuszJuHh4UEODw+lUqkEzqPQ9zgFGrgRBpK5nchiUXgABhdpAEqXz+eDcBPWjzFB4AZ4H9BTLEhsNN5s2CQ8NpPJJEB08QzmWnY+UqmUhoiwJwi8QXhjcYF5kQXSiHQE3W5XNxva0O/3ldta9Jq5AbyHvNAfhvSRxx+H9Gw204M5hjZ+DOAXQ2Ut8bqBbsz92cKOhec81zi2DYm9cFWulgRlY9OzTandbsvl5aVUq1URmRe+S6fTQflcjgKw4Rq8oFKplFbPQf+wOQGa5HI5SaVSQRAtQnOy2WwAmnBhPSwku9mx0bA4d3d3pVAoBIsfm5TF96enp2BzDwYDzdHCnIbrPKOPFi5HWSaeV2wiHi9rRrCcE8G3SM8tEhZNhIiItPVYdJAKeLy5BC9zBQvrY6N57no4BJ6e5uWhr6+vtQ1cedSqQ8w1vUPfQ86XEYvoXLvcqgNrgGRNa/pEtIVdCc7GhQ5WIe8EYPmWWbNVtj0YnzkenFMR31QoFDQOCicUjLj8TjwbdY5xHydpgX8d++cVi0XV9xhkAMcDp5lOp1IoFAK/TqvHIZAwn88r18pms2o4Z1ifUzXg1GbuivYwjAzRk3USnPysz8DOw1wZkoF1Wua5tM4CbB/kaPfxeCz9fl9hfTiTcz5QgEvMATBfGEOku/DUF880gWvD4VDtdaxzAsixDuuYH+iQsWIxq4iNlgvy88GROYOcWq5hdGTFcpnY6ImWnnFXRDS1tMgiZNwONjYmi4itVkuL3JXLZfnss88CEQiKtXXNQcdj4gCAGAQaiohuDK6IiVyaNhUbL0T0gx1kIYpxKgZsWAAe6DeLGgAggFziGgItebOxPoBNADEUhDGBOMWL3s4Ri6Q22xWL+Hg+wpY6nY5uNhQ+xAKzXjogjBmLdZ6bmncIsKdPo9HQiG4eZwZ57HtFFuit550fo49FL3G/ZoLjL/lUjKGF3kt5QLzdbqtMcgQr3gMZ1xqPx+OxcjYUvd/b21O9AT5oFjywBlFMrl34SAwjsvC4YM8LNtxi8aNkLb8vluODzRBANHlRYfOxeQDtAjAEHYRPYTyHIXCbnAeLzsaNYfwZ7URxFfwO+iDeCe798PCg49VutzVuDJwMbWcXO2xcXjcW1meHBYvo2mox0+lUHR9OT0+14gwDNTFAj9HcbDYbhHAtM24nmRI8ozau6wbnTlnYf1kD+CXew0UWA5TNZl3bnR1IVuaxiTC579+/l2KxKL/97W914aONDAczl7NhMyxqsBgoIsrZY8AADgsAFgxqQMRCH+HVwIT60oy4jkajZxwYIigWcD6f17Hg+9iLRSQEfdBnoIhsn8Jcx2xCAHA4Jw24WK/XU6SRTSL20PS4K+bAuweHoTWfYOOLiG40VDcSmRfWgE/lMrQbz0SbWGKw5AEly/bC1taWrhErpousAZI1remT0RYbX7HTRZLDDKxtJGaf0Jf88mwWHWN2NhYxcTKAC9ze3sq7d+9kd3dXXr58KSILCJxlb9YFuY3WmdiyftjYuNYzOw+Dw/b7fa2/jDYwGIFrdlzu7++VOzEQxboeRF328JhOp8phQeB03E82EON3AB7UP+8Xe+RkMtET3UuKM5vNFNxA2wF+MMgEMd7qgVZ/YpHecjW0FWuC5591R3C1t2/fauqE0Wj0zCnd42ye7mbXm7fe2YwUE0nx/c7OjtaNm06nuhZUjMRDoFfBEdkT+TxkCNeTWCzEFhblPEMqBsDTvUTmk3tzcyOXl5cap1YulwP0EJ1jAMVrI55r7Uv4rRV5GDWEVwk/G+CEeniTFwu3H7YXLsrIRfTwLO7P5uamlMvlIMksFj6HzmCD84GJtvAChogLEAPoJPcZxmk25AO94zAkO16sQ9ox5c1mRUaeL253Op3We1qtlrx//14uLy+DlAeefs5/eSyso3AMb/gYOxuI9V6RhQ6pmw2yJUJQsNk+fPjgvnBVRMbuev6t5TK4Zk82GCXxGYv84uJCvcwR3sGL04tb8tIP2P4B6WJvEEwit3k2C0si4y+7MuFZjK7iWQwg2PHg8sSsQ8HrBFyl1WoFKQQY/GG43ppTwNGn02nA2ZjbYPMzx2W0kPVey0HsHOKdPE7YeB73YUAEixXxjaenp/Lhwwe5v79/9ix+Pv/lzW/1L6tT8XfLNlvse3uoMa11tjWt6RORopHZbDbw+oceYhEeT/b1jI7eaed9jsnBIgvuwLoKorlPT09FZG4ofvXqlRsjZjkot8uif+gzOAobi7ndIn5iIBgvYbNjY7t9D+tLaCO+g/0M2c7Qrnw+L4PBQJHAu7u7oHQtv4fFSIsE4v8sDsIWxlwMCCnbEnkccc2bR8tJ7Vx4Ojs7UrOU0m631c56fn6uddYY/YxhAEzs1mfbbvtlaRVOh/usUZspCMeOwf+2QUmKJ14aawz/9RYyb3AWV0QWOgkKz4nMfRfT6bRUq9UAIsZ9yza1ja7FBvFyXMQIkwHxkn/H4gQ/x4pnDM1Dp8M9vV5Pbm9vZWNjQzebzfaLPrB5gA27LE7BAB+zqWLxYhztmNm54sWPDeqJn3beea7RVswx+nh2dqYHa7fb1efworb6P28Oe8j8fwh9XAakjEYjtfnNZjOtXQF6lvCHuYh92DIgJNZQ20BuvN1wMe4pstgY7Mh7fX2tXh/lcnneKVokNrcHT4gnV3M7bJuszG/RWDYqs0sSU8xwC0LkBXvJIDX7bDYL4uzsxkqlUsEEY/HaGDG7OO38MAoYmwuQXYisj3mfeUw5rAYcbTabqY52dnYmZ2dn+pmBFdYDPQcMT4Lx2m+vxTZUEhPCvcPhUI3tqVTqmf1O0cj7+3tpNBoKkNjsU8vYaFLnMMEs0thB8tg6fscDwDk20MFarRa4Re3v7ys4YE9TT+xiLwkGB5jsYPPmYySVYWq0mTcEHxw8PtxnmB5wL1dQBXHRSLSBEU5uF3vlsCE89pfBHbsQ7Tig/Yw08th5QAj6z1IF/F07nY5ysvPzc+l0Os8AJsslvUPaSjQxhNG2KyYyriJKPj09PYs8CPqc+Os1rWlNvxoFXv/1el0Ntf1+P1Gki1HshIn91jtZ7GlkjZZW8e92u/Lhw4dAN9rb2wu4oFVY+XS0YAjrS9Y4GyN87xmZLeew/eV24d2WoyPtA9s/+bSGOYEDPsEdA72BwAfrEW85tW2n5ehoL40vG9MAAAwmSURBVMfy2ffxOHO7YZfkuLR2uy2np6da1rfb7QYiqAeGsEictDZjfUoSQWO/j82j1V3tfVssa3N1extJi3uWbUBPiY4NwiqbD+/lZyP6WGTBrlutVvDbk5MTKZVKOpkQdVic4r/cP34OI3U2t0esz3zNs+8k6QO4nze33QzcVhAWJXtc8IR7yXet4dkTEXkD2s0GkdsLU+Hx9cRU6GiYj7u7Ozk9PZXT01P11PGeZfsd2xj4btlaXbZJveeuco+72bhB7IUN6NfKxh7XSuqQp7PxPcsGzl73TkpwFEaCQHCf4bAevsfqPfhrv7cLL9aXJC7G77HcG59tWAuTTeXGsVKst3gbhNvqtc1eswcIfge9SWSh466yWBmMYhMLkvScnZ0F0D6IpQwGR7wDzOuDHedV5odpVcwCa4J1UKv3Bl7/nuuSXZyemLdKg1fZVKuQtwlsCEe73Zb379/LdDqVk5MTEZmDJixWplKpgNPhmv0/j4N9N3Mvj+zYMEIZG0PvVJ7NZspBbMZdzjyFefSe7XFdb1ztNXvQMRjihafYv2iTDUR9enqS29tb9d6/vLxU1QVkE/54nG0ZxQ6RVTebNzfcP6ZMJhMg4tlsNpiDNUCypjV9ItLsWgim4/gyT55N0s/4mv28KguPiaqWPAifvR1gEGXlGs68/Gx7coNYX8KzLVzv6VrWvOHprPaa5XQxvdVyEr7PM7xzO604tEwMi4EJ7C/JHN/2h7m+jWyfTCYawXF5eSkiorn5RSQwIzCwxaoMYw0excRl0Mfqa96Y8LNSqbnX/9HRkYjMnS3Ozs6kVqtpGxWayuVycnR0pIsFabuTOuDpKJ6M602IbfwqE84D5OlXvDF4w4ksckIeHh7OO25CTkQWOpFtA+d+9PqD37E4GRPh+HuQ3bi2X3wfp1PgAyAmisbG3L7P84ZnkZH1JatS2MOC9TPeaBB5G42GvHv3Ti4uLgLvffQrll3L8ziKrTc7Fpbs75PIbvCkTYfDPJ/PP3Mh3MIiKRaL8urVK33Q27dvg4WY1HA70bazOBWXnfDe82Kch7/HBFsXKxHR3Bg2lOXo6EjrCHB4i9VB8N7Hx8fApQp9wmf43nlIIMjzU7R9stwqqY8xoMY7iCxZbhfTzzx9yequlqz5AdH38K549+6dXF1dycPDQwDOcfo3PD/GfZLavoyTcx9jv7Nj5a1x77dJm1fdtRDPho56Sr+3kSx5J+my08c+e9XTmIkHDicru20Nh0O5uroKchceHh5KoVAIYtC8PCj4zNzQbswkhM/j+p7Iyr/zOB3D+tbvclWRyNsolnMwZ7Mb0LpecdtAHI+XSs0DZRkMubi4CGq3iyzMCB7njPWB3+8tfn7+KuaaJFrGFEQkQIeRKzM4PFd605rWtKb/mQKjdkw+BsU4DJ/sy/SuZde8Uyvp9yymsqeJ147RaKSVLofDoXS7XXn58qXWEoB3Rsz3Dp4m1tTAuhv7JeKf9YBJEv084lPbBoh693peLCAeG243f55Op0FuT1yzYh2DIDasB989Pj5qgh6kMhgMBvpstut6OiH/XXW8YuOyTDKLcbmY5GJFWUhPIvPgXqRKxH0qRo5GI+n1ekHM1TIWa1+G/3+Mbud13hvcpP+DrDsXdxToKuczROQ3PBaOjo4kn88/i3zgDY33sF7I1/g3VozkxWkPJ4tsMjEI4RnhcY8Fahh4saJZkt4IcdFuNvtejDOLt/DoAfDRbDbl/PxcLi4uNGIB/bAG61VFOu7Px246b4PZdeWJ8EnPwjM4vX0mk9H+4r4tdLzX68nV1ZWeUPZGbsgqSqXXoGWN/xi9Yxn3tEAHOB/74vV6PRkMBlpE7+7uTl69eiXlcjlI3IOFYVEy3si2LUmeKTHDM99vF4DdlEAjvcVjdS9vc1kE1ANqYouOEVB4SvAh3e/3Nd7w4uJC6vW6jEajQI+y+tkqrlgxiSjGdezYrvI8bz2vIl2h7zjMrV4ustbZ1rSmT0ZqZxuPx3J3d6figA18W4UzeeRxq9hJsaoYsYpOyNxAJF4AnlMUQKw8Pj6WFy9eiEiY/z9mbIXI5UkB3MaYKBiTHjyxlKFydgBmRDCm0/I7bBtY58U1y4ExjozK4h4udFir1VR3abfbmurOIo+W28Y4j5UMPkbU88aVnx3jbrYNq65/6+jOFAAkKOUjIoHPHV6Q1ECvY/aa99kDVpLYfUzJ9a55Xh48GNA3sMgQZoQC6yJzPQ411Tgl+Wy2AEyS8k7YDR/TTZLEJ+hE9vlJNrqk53uHAF9nUAfEY8Wb+vHxUbrdrjoUX19fS71eVz2YxUQvan7ZmvLa7a0t62Ru+7gMgLLvsN9769/b8NbjiH+nXv843ZK4hj1x8buY3Bx7TpLut+ykiV1bZTM/PT25Hhesez0+Pkq73VadtdFoSKlUkkqlonXcSqXSs3TqABWswm85iBfBi3fz2PD4MAeJ9Z9/s+wwZC7I/Wcbnm0XuDsM/CJzh4FGoyE3NzcacdHv92U0GgVgFbiwB4bYQ2aZfhSj2Bqz/bZhRfh/0ntWlbg2NjZkd3dXROa1+J55kHAjbGECrwOrboakE4lFolW5JT93FTHSkvURZJHOunlxEOh4PJZeryfX19c6kJVKRY6OjtTDGzWyrd8lONEyL5xlijqfkvwb7zSPHUKWw1tQx0Z8YE3gPoT8Y4OJzDNUNxoN6fV6gUjLhwwOOc8Y7rmpraJyeN/zuvCu4XPSBvMYR+xZHmUyGVU/Dg4OpNvtSqPRWJh8En+9pjWt6Vcj5WyZTEb29vYW8uVWkOVuKacCxfzl7P1WZrf34J2rKs32Htbb+NkWFre6ifVxxCk9Ho81jdzt7a3UajU1hh8cHMju7m5QyJ3rJvA7rRyPNiXpFmxgRru8iPNUKsy7yPqSFUntmNtxn07nTs8Qp6GXNRoN1WcHg4GCH3YNWP0syT7I15J0V298PP3MiuTe82MS1Soqi6dOicznCcHKx8fHcnFxIZubm5pycAuN29vbk9evX+sXp6en7kL2DK6xgeGGxe7xFFm7gDxaNimx33BbIDZamxz0DBG/sul4PJZms6mb7+rqSvL5vBSLRdXrisWiFle06J0VU1h/4tAm1i+sWGftUuydYsVB9naxm11kgWxi7u/v76Xb7Uq73VYbZK/XCwrP8/N5vGz2K4yvN18xFSA256usBfsMr632N6xfJr07pjN7ujIOW1dny+VyUqlU9CRDjn1+gBfj5m1I7ySwgxGjJAWfB25VXS+mgPOg2/6wzgady4aNiCwSBaGgYqPR0IzSuVxOdnd3ZXd3V2t2oc5bOp0O4uWYw0LvYzCHi9WzN731RLF13ryFgwQ9XB10MBgEddc6nY7c39/LcDgMShvbDY934i/aHdtESdzb83ZZBlzEKOk99j6Pq9vfrrLGcH/SOKi7ln2xt4H4vlWJxTlvEO01zwblKdax9zB9zEa0beA28kLD99Z7AxwZG/D+/l6azWYAnEA8RfVPXBNZiO1AsMbjsX6HyqeFQkFBGiSmZVDG85pBSWGuftPtdqXb7WqqdGwsNmXYRcjc16sWyu+282oPNG8NxeYvBvokiXvLgBC+nrTmY8/ndjBNJhOVBOr1urTb7QCFXQMka1rTJyLlbI+PjxrNjGtMHoeJ3cd/cc8qokAMEImBJHhPEqddJuJa+d4q2fwM/PUium18Ge6zRTS8U5nfy7UGcB+8NrLZrHK2QqEghUJBxVZwVs5IjBprw+FQRUZ85tK8/G7uixXXwcW8HJHWQ8Xrm+2zNw92nXmi//+XVmmHpSR1w343Go00zQNSkXOK+C1MUrfblXq9HgRX2pfx51UaaH+XJDos21TLnmXb6oEeMTHgmcOoMSDj98sUexY/Lbhh/28XFMv6mBMrgrONC4UXGTXF/Zz7kw3tPEYiYS5J2zabNpy9V+zYJv2f+87j9zEbZ9na80TVZe1a9Z38Dv7Oe9bT05N6zqRSKU3hD1LO1uv1NN5IRJ7d6HE2b1Dt9dhJHnum99xVOZndDB5YkKQ3evdxG2L9wne8SfF/1vW4/bZtnGIv9nyRMLLZlsrl9/LvPP3S9tEim7FiGDGuFZuTZfr1x2wAa0JJesayw33ZePCzvXQWHs1msyA+75n0k/jrNa1pTb8a/R+XkQrRdTKSsgAAAABJRU5ErkJggg==;" vertex="1" parent="1">
          <mxGeometry x="560" y="390" width="68.44" height="70" as="geometry" />
        </mxCell>
      </root>
    </mxGraphModel>
  </diagram>
</mxfile>
